<svg width="155" height="51" viewBox="0 0 155 51" fill="none" xmlns="http://www.w3.org/2000/svg">
<path d="M85.4035 13.1231C84.2828 12.8577 83.0442 13.0052 81.9236 13.3295C81.8351 13.359 81.7467 13.3885 81.6582 13.418C81.9236 13.0052 82.1595 12.5923 82.4249 12.1794C82.5134 12.032 82.2775 11.914 82.189 12.0615C81.8646 12.5628 81.5403 13.0641 81.2159 13.5655C80.921 13.6834 80.6555 13.8309 80.4491 14.0668C80.1542 14.3912 80.0068 14.7746 79.8593 15.1579C79.6234 15.8657 79.358 16.5735 79.1221 17.2812C79.0631 17.4287 78.9746 17.5466 78.9156 17.6941C78.2668 19.0506 77.736 20.4367 77.3821 21.8817C77.3821 21.1739 77.3526 20.4662 77.3526 19.7879C77.3526 19.0506 77.3821 18.3429 77.3821 17.6056C77.5296 17.3697 77.736 17.1338 77.795 17.0453C77.9719 16.6914 78.0899 16.308 78.2079 15.9247C78.4143 15.2169 78.8861 14.5681 79.0631 13.8604C79.1221 13.595 79.181 13.3295 79.299 13.0936C79.417 12.8577 79.6529 12.6513 79.8003 12.4153C80.1247 11.9435 80.1542 11.3832 80.2722 10.8524C80.3901 10.3215 80.6555 9.76123 81.2159 9.52531C81.5108 9.40735 81.8646 9.40735 82.2185 9.40735C83.1327 9.40735 84.0469 9.43685 84.9611 9.49583C85.8163 9.55481 86.76 9.64328 87.4088 10.1741C86.9075 9.58429 86.3766 8.93551 85.5804 8.64061C84.8726 8.3752 84.0764 8.43418 83.3097 8.52265C81.9236 8.6701 80.4491 8.90602 79.4465 9.76124C78.2963 10.7639 77.854 12.1499 77.5591 13.536C77.5886 13.2706 77.5886 13.0052 77.6181 12.7397C77.677 11.8845 77.7655 10.9998 77.8245 10.1446C77.854 9.96766 77.913 9.82022 77.9425 9.64328C78.0014 9.43685 78.0309 9.23042 78.0604 9.05348C78.2963 8.72908 78.7092 8.49316 79.0926 8.28673C79.0926 8.28673 79.1221 8.28673 79.1221 8.25724C79.5939 8.02132 80.0362 7.75591 80.5376 7.54948C80.744 7.46101 81.6582 7.1956 81.6582 6.95967C82.2185 6.60579 83.634 5.92751 84.2533 6.42885C84.4008 6.54681 84.5482 6.69426 84.7547 6.75324C85.0791 6.81222 85.374 6.51732 85.4329 6.22242C85.4919 5.92752 85.3445 5.60313 85.197 5.33772C84.9021 4.7774 84.6072 4.21709 84.4598 3.5978C84.3123 3.008 84.3418 2.35921 83.9879 1.85787C83.5751 1.32705 82.7788 1.15012 82.307 0.619295C82.1006 0.383374 81.8646 0.0589839 81.5992 0.206435C81.5108 0.265415 81.4518 0.353882 81.3928 0.442352C80.803 1.29757 79.4759 1.50399 79.0041 2.44768C78.6797 3.09646 78.7682 3.83372 78.2374 4.39403C78.0899 4.57097 77.913 4.71842 77.7655 4.86587C77.736 4.7774 77.736 4.71843 77.736 4.62996C77.6475 3.8927 77.8245 3.12595 77.677 2.35921C77.6181 1.94635 77.4411 1.504 77.5296 1.09114C77.5886 0.855218 77.7065 0.589806 77.6181 0.353885C77.5296 0.117964 77.2642 0 77.0283 0C76.7923 0 76.5269 0.0884704 76.291 0.147451C75.5243 0.353882 74.669 0.412862 73.8728 0.294901C73.5189 0.235921 73.0766 0.176939 72.8112 0.41286C72.6637 0.530821 72.6047 0.70776 72.4868 0.82572C72.3098 0.973171 72.0444 1.03215 71.838 1.12062C71.0123 1.4745 71.1007 2.47717 70.3635 2.80156C70.1276 2.89003 69.8622 2.97851 69.6557 3.12596C69.4493 3.3029 69.3608 3.5978 69.5083 3.80423C69.6852 4.01066 70.0096 3.95168 70.275 4.01066C70.8648 4.12862 71.1892 4.74791 71.661 5.10179C71.897 5.27873 72.1919 5.42619 72.4573 5.60313C73.1061 6.10446 73.342 7.01865 74.1087 7.40203C74.4331 7.57897 74.846 7.60846 75.1409 7.84438C75.4948 8.13928 75.7307 8.64061 75.9666 9.02398C76.0551 9.14194 76.1436 9.28939 76.2615 9.37786C76.3795 9.46633 76.4974 9.55481 76.6154 9.64328C76.9988 9.8792 77.2937 10.2331 77.4706 10.6164C77.4116 11.1768 77.3526 11.7371 77.3232 12.2679C77.2052 13.4475 77.1462 14.6271 77.0872 15.8067C77.0283 16.9568 76.9988 18.1069 76.9988 19.2571C76.9398 18.1659 76.9693 17.0748 76.8513 16.0131C76.7923 15.4823 76.7628 14.981 76.5564 14.4797C76.232 13.6244 75.4948 12.9167 75.0229 12.091C74.5806 11.3242 74.4036 10.469 73.9908 9.70225C73.4894 8.78806 72.6932 8.02132 71.6905 7.51999C72.2509 8.05081 72.6342 8.72908 72.7227 9.46634C72.8112 9.96767 72.7522 10.469 72.8996 10.9408C73.1356 11.7371 73.8138 12.3564 74.0792 13.1231C74.2857 13.7129 74.2267 14.3617 74.4331 14.9515C74.2562 14.7746 74.0792 14.6271 73.9023 14.4797C72.9291 13.7129 71.4546 13.477 70.1865 13.8014C68.9185 14.0963 67.8568 14.8925 67.1491 15.8657C67.5619 15.4233 68.2697 15.3349 68.889 15.3349C69.5378 15.3349 70.1865 15.3938 70.7763 15.1579C71.3072 14.922 71.8675 14.4502 72.3983 14.6566C72.6637 14.7451 72.8112 14.981 72.9291 15.1874C73.6074 16.2786 74.1972 17.4287 75.1409 18.3724C75.5538 18.7852 76.0256 19.0801 76.409 19.4635C76.5269 19.8174 76.7039 20.1713 76.9103 20.4956C76.9103 21.1444 76.9103 21.7932 76.9398 22.442C76.8513 22.2356 76.7039 22.0881 76.5564 21.9112C75.5832 20.82 74.8755 19.4635 73.4894 18.7262C72.3983 18.1364 71.0123 18.048 69.8327 18.4018C68.6236 18.7557 67.6209 19.5225 66.9426 20.4662C67.8568 20.0238 68.9185 19.8174 69.9211 19.9058C70.334 19.9353 70.7763 20.0238 71.1302 19.8469C71.4251 19.7289 71.6316 19.4635 71.897 19.316C72.5163 18.9622 73.401 19.1686 73.9023 19.6404C74.4036 20.1123 74.6396 20.7611 74.8165 21.3804C74.905 21.6458 74.9639 21.9407 75.1409 22.1766C75.3178 22.4125 75.5832 22.6189 75.7012 22.8843C75.7602 23.0318 75.7602 23.2087 75.7897 23.3562C75.8781 24.0345 76.3205 24.7717 76.9988 25.1846C77.0283 25.6859 77.0577 26.1872 77.1462 26.6886C77.1462 26.7181 77.1462 26.7181 77.1462 26.7476C77.1757 26.954 77.5296 26.895 77.5296 26.6886C77.5296 26.2462 77.5001 25.8039 77.4706 25.332C77.736 24.7717 77.9719 24.1819 78.2374 23.6216C78.3553 23.3562 78.5028 23.0613 78.7092 22.8549C78.9451 22.6189 79.2695 22.501 79.5644 22.2945C80.3017 21.7932 80.6555 20.997 81.0979 20.2892C82.0711 18.7262 83.6046 17.4877 85.1086 16.2786C84.4008 16.6324 83.5161 16.5145 82.7493 16.7209C82.0711 16.8979 81.5402 17.3402 81.0389 17.7531C80.3312 18.3429 79.6234 18.9327 79.1515 19.6699C78.6797 20.4662 78.5323 21.3804 78.0604 22.1766C77.736 22.7074 77.5296 23.2087 77.3821 23.7101C77.3821 23.5331 77.3526 23.3562 77.3526 23.1792C77.3526 23.1203 77.3526 23.0613 77.3526 22.9728C77.4411 22.2356 77.6181 21.4688 77.854 20.7611C78.0899 19.9353 78.4143 19.1686 78.7682 18.3724C79.9773 17.8415 80.8915 16.0426 81.2748 14.9515C81.3928 14.6271 81.5108 14.2732 81.8351 14.0963C82.4249 13.8014 83.1032 14.2732 83.752 14.4207C84.4598 14.5976 85.197 14.3617 85.9048 14.3027C86.6126 14.2437 87.4972 14.4207 87.7332 15.04C87.5562 14.1258 86.5241 13.3885 85.4035 13.1231Z" fill="#3A332B"/>
<path d="M2.94901 49.8379V50.1623H0V49.8379C0.324391 49.8379 0.5898 49.7494 0.766741 49.5725C0.973172 49.3955 1.06164 49.1006 1.09113 48.6878L1.50399 37.4815H1.47451C1.47451 37.4815 1.50399 37.452 1.50399 37.4225C1.50399 37.0392 1.41552 36.7443 1.26807 36.5083C1.12062 36.3019 0.914193 36.184 0.648782 36.184H0.471839V35.8301H2.41819L7.96234 48.8942L13.2411 35.8301H15.2759V36.184C14.981 36.184 14.7156 36.2724 14.5681 36.4199C14.3912 36.5673 14.3027 36.8622 14.2732 37.2456L14.7746 48.5403C14.804 49.0122 14.8925 49.3366 15.0989 49.543C15.2759 49.7494 15.5413 49.8379 15.8952 49.8379V50.1623H12.6808V49.8379H12.8577C13.1231 49.8379 13.3295 49.7199 13.477 49.5135C13.6244 49.3071 13.6834 48.9827 13.6834 48.5993V48.5108C13.6244 46.535 13.5655 44.5592 13.477 42.5833C13.3885 40.6075 13.3295 38.6316 13.2411 36.6263L7.72641 50.2802H7.461C6.51732 48.098 5.57363 45.9157 4.62995 43.7629C3.68627 41.6101 2.77207 39.4279 1.82839 37.2456L1.41552 48.4519C1.44501 48.8647 1.56298 49.2186 1.76941 49.4545C2.00533 49.6904 2.30023 49.8084 2.65411 49.8084H2.94901V49.8379Z" fill="#3A332B"/>
<path d="M29.6376 47.98C29.5196 48.5698 29.4016 49.0711 29.3132 49.484C29.2247 49.8969 29.1657 50.1328 29.1657 50.1623H18.6672V49.8379C19.0211 49.8379 19.2865 49.7494 19.4635 49.543C19.6404 49.3366 19.7584 49.0122 19.7584 48.5403V37.452C19.7584 37.0687 19.6699 36.7443 19.493 36.5083C19.316 36.2724 19.1096 36.1545 18.8442 36.1545H18.6672V35.8301H29.0478C29.0478 36.184 29.0478 36.5378 29.0773 36.9212C29.1067 37.3046 29.1067 37.688 29.1362 38.0123H28.8413L28.7234 37.7174C28.4875 37.2161 28.1041 36.8033 27.6027 36.5378C27.1014 36.2429 26.5411 36.0955 25.9218 36.0955H20.82V41.5217H25.3025C25.8333 41.5217 26.3052 41.4332 26.6886 41.2858C27.0719 41.1383 27.3078 40.9024 27.3963 40.637L27.4553 40.46H27.7502V42.9962H27.4553L27.3963 42.8192C27.2784 42.4949 27.0424 42.2589 26.6591 42.0525C26.2757 41.8461 25.8333 41.7576 25.3025 41.7576H20.82V49.8674H26.0693C26.6886 49.8674 27.2489 49.7199 27.8092 49.425C28.3695 49.1301 28.8118 48.7468 29.1362 48.2454L29.3427 47.9505H29.6376V47.98Z" fill="#3A332B"/>
<path d="M39.4578 50.2494C38.3667 50.2494 37.3935 50.0724 36.5088 49.748C35.6241 49.3942 34.8573 48.8928 34.238 48.2735C33.6188 47.6248 33.1174 46.858 32.7635 45.9733C32.4097 45.0886 32.2622 44.0859 32.2622 42.9948C32.2622 41.9037 32.4391 40.9305 32.7635 40.0458C33.1174 39.1611 33.5893 38.3943 34.238 37.7456C34.8868 37.0968 35.6241 36.6249 36.5088 36.2711C37.3935 35.9172 38.3667 35.7402 39.4578 35.7402C39.9591 35.7402 40.4605 35.7697 40.9913 35.8287C41.4926 35.8877 42.0234 35.9762 42.4953 36.0941C42.9966 36.2121 43.439 36.33 43.8813 36.507C44.3237 36.6544 44.707 36.8314 45.0609 37.0378L45.1494 39.0726H44.7955C44.6776 38.7187 44.5006 38.3649 44.2647 38.07C44.0583 37.7456 43.7929 37.4802 43.5274 37.2147C43.2325 36.9493 42.9376 36.7429 42.5838 36.566C42.2299 36.389 41.876 36.271 41.5221 36.2121C40.8438 36.0941 40.1656 36.0351 39.4873 36.0351C38.5731 36.0351 37.7474 36.2121 37.0101 36.5365C36.2729 36.8609 35.6241 37.3327 35.0933 37.952C34.5624 38.5713 34.1791 39.2791 33.8842 40.1638C33.5893 41.019 33.4713 41.9921 33.4713 43.0243C33.4713 44.0859 33.6188 45.0296 33.8842 45.8848C34.1791 46.7401 34.5919 47.4773 35.0933 48.0966C35.6241 48.7159 36.2434 49.1877 37.0101 49.5121C37.7474 49.8365 38.5731 50.0135 39.4873 50.0135C40.313 50.0135 41.1387 49.925 41.9645 49.7775C42.7902 49.6301 43.5569 49.4237 44.2057 49.1288V43.8205C44.2057 43.4077 44.1172 43.0833 43.9698 42.8473C43.7929 42.6114 43.5864 42.4935 43.321 42.4935H43.1441V42.1691H46.27V42.4935C45.9161 42.4935 45.6507 42.6114 45.4738 42.8179C45.2968 43.0243 45.2084 43.3487 45.2084 43.8205V48.9813C44.884 49.1877 44.5006 49.3647 44.0583 49.5121C43.6159 49.6596 43.1441 49.807 42.6427 49.925C42.1414 50.0429 41.6401 50.1314 41.0798 50.1904C40.5194 50.2199 39.9886 50.2494 39.4578 50.2494Z" fill="#3A332B"/>
<path d="M51.7256 50.1623H48.4817V49.8379C48.8356 49.8379 49.101 49.7494 49.2779 49.543C49.4549 49.3366 49.5433 49.0122 49.5433 48.5403V37.4815C49.5433 37.0687 49.4549 36.7443 49.3074 36.5083C49.1305 36.2724 48.924 36.1545 48.6586 36.1545H48.4817V35.8301H51.7256V36.1545C51.3717 36.1545 51.1063 36.2724 50.9294 36.4789C50.7524 36.6853 50.664 37.0097 50.664 37.452V45.4144C50.9589 44.972 51.3717 44.6181 51.9025 44.3527C52.4629 44.0873 53.0527 43.8514 53.7309 43.6745C54.3797 43.4975 55.0875 43.3206 55.7952 43.2026C56.503 43.0552 57.1813 42.9077 57.8006 42.7308C58.4199 42.5538 58.9507 42.3179 59.4225 42.0525C59.8944 41.7871 60.1893 41.4332 60.3662 40.9909V37.4815C60.3662 37.0687 60.2777 36.7443 60.1303 36.5083C59.9828 36.2724 59.7469 36.1545 59.4815 36.1545H59.3046V35.8301H62.5485V36.1545C62.1946 36.1545 61.9292 36.2724 61.7522 36.4789C61.5753 36.6853 61.4868 37.0097 61.4868 37.452V48.5108C61.4868 48.9237 61.5753 49.2481 61.7228 49.4545C61.8702 49.6904 62.1061 49.8084 62.3715 49.8084H62.5485V50.1328H59.3046V49.8084C59.6585 49.8084 59.9239 49.7199 60.1008 49.5135C60.2777 49.3071 60.3957 48.9827 60.3957 48.5108V41.5512C60.1008 41.9345 59.6879 42.2589 59.1276 42.5243C58.5673 42.7603 57.9775 42.9667 57.2992 43.1436C56.621 43.3206 55.9427 43.468 55.2349 43.6155C54.5272 43.7629 53.8489 43.9399 53.2296 44.1463C52.6103 44.3527 52.0795 44.5886 51.6076 44.913C51.1358 45.2079 50.8409 45.5913 50.664 46.0926V48.5403C50.664 48.9532 50.7524 49.2776 50.8999 49.484C51.0473 49.7199 51.2833 49.8379 51.5487 49.8379H51.7256V50.1623Z" fill="#3A332B"/>
<path d="M73.7549 38.365C73.7549 38.7189 73.9023 39.0433 74.1678 39.3087C74.4332 39.5741 74.8165 39.8101 75.2589 40.0165C75.7307 40.2229 76.2321 40.4294 76.8219 40.6063C77.4117 40.7832 78.0015 40.9897 78.5913 41.1961C79.2106 41.4025 79.8004 41.6385 80.3607 41.9334C80.9505 42.1988 81.4518 42.5232 81.9237 42.9065C82.3955 43.2604 82.7494 43.7028 83.0148 44.2041C83.2802 44.7054 83.4277 45.2952 83.4277 45.9735C83.4277 46.5043 83.2802 47.0351 83.0443 47.566C82.7789 48.0673 82.425 48.5391 81.9826 48.952C81.5403 49.3649 81.0095 49.6893 80.3902 49.9252C79.7709 50.1611 79.1221 50.2791 78.4438 50.2791C77.8245 50.2791 77.2347 50.2496 76.6449 50.1906C76.0551 50.1611 75.5243 50.0726 75.023 49.9842C74.4921 49.8957 74.0498 49.7777 73.6074 49.6598C73.1946 49.5123 72.8407 49.3649 72.5458 49.2174L72.4868 47.1236H72.8407L73.1061 47.6544C73.3715 48.2148 73.7549 48.6866 74.2857 49.07C74.787 49.4533 75.3474 49.6893 75.9667 49.8367C76.3795 49.8957 76.7924 49.9547 77.2052 49.9842C77.6181 50.0137 78.031 50.0137 78.4733 50.0137C79.0336 50.0137 79.5939 49.9252 80.0953 49.7188C80.6261 49.5123 81.0684 49.2469 81.4813 48.893C81.8647 48.5391 82.1891 48.1558 82.425 47.7429C82.6609 47.3006 82.7494 46.8582 82.7494 46.3864C82.7494 45.7966 82.6019 45.2952 82.3365 44.8529C82.0711 44.4105 81.6877 44.0272 81.2454 43.7028C80.7735 43.3784 80.2722 43.0835 79.6824 42.8475C79.0926 42.5821 78.5028 42.3757 77.913 42.1398C77.3232 41.9334 76.7334 41.6974 76.1436 41.491C75.5538 41.2846 75.0525 41.0486 74.5806 40.7832C74.1088 40.5178 73.7549 40.2524 73.4895 39.928C73.2241 39.6036 73.0766 39.2203 73.0766 38.8074C73.0766 38.2471 73.1946 37.7458 73.46 37.3624C73.7254 36.979 74.0498 36.6546 74.4627 36.4187C74.8755 36.1828 75.3769 36.0058 75.9077 35.8879C76.4385 35.7699 76.9988 35.7109 77.5296 35.7109C77.972 35.7109 78.3848 35.7404 78.8272 35.7994C79.2695 35.8584 79.6824 35.9174 80.0953 36.0353C80.5081 36.1238 80.8915 36.2418 81.2454 36.3597C81.5993 36.4777 81.8942 36.6251 82.1596 36.7726C82.1006 36.8611 82.0711 36.92 82.0711 36.9495L82.1596 36.7726L82.2481 38.8959H81.8057C81.7172 38.7189 81.6288 38.542 81.5403 38.3356C81.4518 38.1291 81.3634 37.9227 81.2749 37.7458C81.1569 37.5098 81.0095 37.3034 80.8325 37.097C80.6556 36.8905 80.4197 36.6841 80.0953 36.5367C79.8004 36.3597 79.417 36.2418 78.9746 36.1238C78.5323 36.0353 78.0015 35.9763 77.4117 35.9763C76.9398 35.9763 76.4975 36.0058 76.0551 36.0943C75.6128 36.1533 75.2294 36.3007 74.8755 36.4777C74.5216 36.6546 74.2562 36.8905 74.0498 37.2149C73.8434 37.5098 73.7549 37.8932 73.7549 38.365Z" fill="#3A332B"/>
<path d="M98.91 35.9482C98.91 35.9482 98.9395 36.0662 98.969 36.2726C98.9985 36.4791 99.028 36.7445 99.087 37.0099C99.1165 37.2753 99.146 37.5407 99.1754 37.7766C99.2049 38.0125 99.2344 38.16 99.2344 38.1895H98.8805L98.6151 37.6587C98.3497 37.1573 97.9664 36.774 97.4945 36.4791C97.0227 36.1842 96.5508 36.0367 96.079 36.0367H93.13V48.4815C93.13 48.8944 93.2184 49.1893 93.3659 49.4252C93.5133 49.6611 93.7493 49.7791 94.0147 49.7791H94.1621V50.1035H90.9182V49.7791C91.2721 49.7791 91.5375 49.6906 91.7144 49.4842C91.8914 49.2778 92.0093 48.9534 92.0093 48.4815V36.0367H89.0603C88.5885 36.0367 88.1166 36.1842 87.6448 36.4791C87.173 36.774 86.8191 37.1573 86.5537 37.6587L86.2883 38.1895H85.9639C85.9639 38.1305 85.9639 37.9831 85.9934 37.7471C86.0228 37.5112 86.0523 37.2458 86.0818 36.9804C86.1113 36.715 86.1408 36.4496 86.1703 36.2431C86.1998 36.0072 86.2293 35.9187 86.2293 35.9187L86.2588 35.8008H98.91V35.9482Z" fill="#3A332B"/>
<path d="M113.154 35.8301H115.985V36.184H115.778C115.631 36.184 115.513 36.2135 115.395 36.3019C115.277 36.3904 115.159 36.5084 115.071 36.6263C114.982 36.7738 114.894 36.9212 114.835 37.0982C114.776 37.2751 114.746 37.452 114.746 37.6585V45.5618C114.746 46.1811 114.599 46.7709 114.363 47.3312C114.097 47.8915 113.743 48.3929 113.242 48.8352C112.741 49.2481 112.151 49.602 111.414 49.8379C110.706 50.1033 109.88 50.2213 108.996 50.2213C108.052 50.2213 107.226 50.0738 106.459 49.8084C105.722 49.5135 105.073 49.1301 104.572 48.6583C104.041 48.1864 103.658 47.6261 103.392 46.9773C103.127 46.3286 102.98 45.6503 102.98 44.9425V37.511C102.98 37.1571 102.891 36.8622 102.685 36.5968C102.508 36.3314 102.301 36.2134 102.065 36.2134H101.888V35.8301H105.103V36.184H104.955C104.719 36.184 104.543 36.3019 104.366 36.5378C104.189 36.7738 104.1 37.0687 104.071 37.3931L104.1 45.1785C104.1 45.7977 104.218 46.3875 104.454 46.9479C104.69 47.5082 105.014 48.0095 105.457 48.4519C105.899 48.8647 106.4 49.2186 107.049 49.4545C107.668 49.7199 108.376 49.8379 109.172 49.8379C109.998 49.8379 110.735 49.7199 111.384 49.484C112.033 49.2481 112.593 48.9237 113.036 48.5403C113.508 48.1275 113.832 47.6851 114.068 47.1543C114.304 46.6235 114.422 46.0632 114.422 45.5028L114.451 37.5995C114.422 37.2456 114.304 36.9212 114.097 36.6263C113.891 36.3609 113.655 36.2134 113.39 36.2134H113.183V35.8301H113.154Z" fill="#3A332B"/>
<path d="M124.596 35.8301C125.716 35.8301 126.719 36.007 127.604 36.3314C128.518 36.6853 129.285 37.1571 129.904 37.7764C130.553 38.3957 131.025 39.1625 131.378 40.0472C131.732 40.9319 131.909 41.905 131.909 42.9667C131.909 44.0578 131.762 45.031 131.467 45.9157C131.172 46.8004 130.73 47.5672 130.169 48.1864C129.609 48.8057 128.96 49.3071 128.164 49.6609C127.368 50.0148 126.513 50.1623 125.569 50.1623H118.816V49.8379C119.17 49.8379 119.435 49.7494 119.612 49.543C119.789 49.3366 119.907 49.0122 119.907 48.5403V37.452C119.907 37.0392 119.818 36.7148 119.641 36.4789C119.464 36.2429 119.258 36.125 118.993 36.125H118.816V35.8301H124.596ZM125.598 49.8674C126.395 49.8674 127.102 49.7199 127.751 49.3955C128.4 49.0711 128.96 48.5993 129.403 47.98C129.845 47.3607 130.228 46.653 130.464 45.7977C130.73 44.9425 130.848 43.9988 130.848 42.9667C130.848 41.9345 130.7 41.0203 130.405 40.1651C130.11 39.3099 129.698 38.5727 129.137 37.9829C128.577 37.3636 127.928 36.9212 127.161 36.5673C126.395 36.2429 125.539 36.066 124.596 36.066H120.998V49.8379H125.598V49.8674Z" fill="#3A332B"/>
<path d="M137.955 50.1623H134.74V49.8379C135.094 49.8379 135.36 49.7494 135.537 49.543C135.714 49.3366 135.832 49.0122 135.832 48.5403V37.452C135.832 37.0687 135.743 36.7443 135.596 36.5083C135.448 36.2724 135.212 36.1545 134.947 36.1545H134.77V35.8301H137.984V36.184C137.631 36.184 137.365 36.3019 137.188 36.4789C137.011 36.6853 136.923 37.0097 136.923 37.452V48.5403C136.923 48.9532 137.011 49.2481 137.159 49.484C137.306 49.7199 137.542 49.8379 137.807 49.8379H137.955V50.1623Z" fill="#3A332B"/>
<path d="M155 42.9364C155 43.9096 154.853 44.8533 154.558 45.738C154.263 46.6227 153.791 47.3894 153.201 48.0677C152.611 48.7165 151.874 49.2473 150.989 49.6307C150.105 50.014 149.073 50.2205 147.893 50.2205C146.713 50.2205 145.681 50.014 144.796 49.6307C143.912 49.2473 143.175 48.7165 142.555 48.0677C141.965 47.4189 141.523 46.6227 141.199 45.738C140.904 44.8533 140.756 43.9096 140.756 42.9364C140.756 41.9632 140.904 41.0196 141.199 40.1348C141.523 39.2501 141.965 38.4834 142.555 37.8346C143.145 37.1858 143.912 36.655 144.796 36.2421C145.681 35.8588 146.713 35.6523 147.893 35.6523C149.073 35.6523 150.105 35.8588 150.989 36.2421C151.874 36.6255 152.611 37.1563 153.201 37.8346C153.791 38.5129 154.263 39.2796 154.558 40.1348C154.853 41.049 155 41.9632 155 42.9364ZM147.863 49.9551C148.837 49.9551 149.692 49.7781 150.429 49.3947C151.166 49.0114 151.786 48.51 152.287 47.8613C152.788 47.2125 153.142 46.4752 153.408 45.6495C153.673 44.7943 153.791 43.9096 153.791 42.9659C153.791 42.0222 153.673 41.1375 153.408 40.2823C153.172 39.4271 152.788 38.6898 152.287 38.0705C151.786 37.4218 151.166 36.9204 150.429 36.537C149.692 36.1537 148.837 35.9767 147.863 35.9767C146.89 35.9767 146.006 36.1537 145.268 36.537C144.531 36.9204 143.912 37.4218 143.41 38.0705C142.909 38.7193 142.526 39.4566 142.29 40.2823C142.024 41.108 141.906 42.0222 141.906 42.9659C141.906 43.9096 142.024 44.7943 142.29 45.6495C142.555 46.5047 142.909 47.242 143.41 47.8613C143.912 48.51 144.531 49.0114 145.268 49.3947C146.035 49.7781 146.89 49.9551 147.863 49.9551Z" fill="#3A332B"/>
</svg>
