<svg xmlns="http://www.w3.org/2000/svg" xmlns:xlink="http://www.w3.org/1999/xlink" width="160" height="160" viewBox="0 0 160 160"><defs><clipPath id="a"><rect width="129.806" height="18.736" fill="none"/></clipPath></defs><g transform="translate(-8466 -12804)"><g transform="translate(8481 12875)"><g transform="translate(0 0)" clip-path="url(#a)"><path d="M110.241.185h3.242L127.2,15.148V.185h2.606v18.37h-3.06l-13.9-15.175V18.554h-2.606ZM96.051,16.312c5.561,0,8.424-3.379,8.424-6.943s-2.863-6.945-8.424-6.945S87.6,5.806,87.6,9.369,90.475,16.312,96.051,16.312ZM96.051,0c7.417,0,11.16,4.923,11.16,9.369s-3.741,9.367-11.16,9.367S84.889,13.814,84.889,9.369,88.634,0,96.051,0ZM65.626,9.369c0,3.564,2.883,6.943,8.519,6.943,2.459,0,4.771-.569,8.554-2.444l1,2.314a20.375,20.375,0,0,1-9.544,2.554c-7.482,0-11.255-4.923-11.255-9.367S66.676,0,74.15,0a20.347,20.347,0,0,1,9.544,2.554l-1,2.314C78.913,3,76.6,2.424,74.143,2.424c-5.629,0-8.512,3.382-8.512,6.945ZM46.954,11.7h9.621L51.77,2.828ZM50.446.185h2.791l10.118,18.37H60.3L57.875,14.09h-12.2l-2.424,4.464H40.333Zm-27.9,0H39.43V2.571H25.188V8.105H38.5v2.387H25.188V16.15H39.416L38.1,18.539H22.525ZM13.033,16.165c2.743,0,3.838-1.047,3.838-2.828s-1.1-2.831-3.838-2.831H2.661v5.659ZM16.21,5.344c0-1.746-1.1-2.773-3.763-2.773H2.661V8.105h9.768c2.678,0,3.763-1.03,3.763-2.773Zm-3.691,13.2H0V.17H11.933c4.883,0,6.958,2.092,6.958,4.738a4.222,4.222,0,0,1-3.324,4.1c2.516.459,4.04,2.02,4.04,4.389,0,2.831-2.259,5.145-7.068,5.145" transform="translate(0 0)" fill="#fff"/></g></g><rect width="160" height="160" transform="translate(8466 12804)" fill="none" opacity="0"/></g></svg>