<svg xmlns="http://www.w3.org/2000/svg" xmlns:xlink="http://www.w3.org/1999/xlink" width="160" height="160" viewBox="0 0 160 160"><defs><clipPath id="a"><rect width="121.739" height="58.784" fill="none"/></clipPath></defs><g transform="translate(-8626 -12804)"><g transform="translate(8645 12855)"><path d="M270.891,86.381v2.563H253.909l13.422-21.183H255.4V65.2H272.28L258.858,86.381Z" transform="translate(-191.102 -49.07)" fill="#fff"/><g clip-path="url(#a)"><path d="M352.849,67.565A12.141,12.141,0,0,1,355.626,76a11.873,11.873,0,0,1-4.023,9.221,11.6,11.6,0,0,1-7.583,2.848,11.875,11.875,0,0,1-9.186-4.45,12.25,12.25,0,0,1-2.492-7.725c0-7.085,5.02-12.425,11.749-12.425a11.683,11.683,0,0,1,8.758,4.094M335.4,75.789c0,5.518,3.631,9.541,8.545,9.541a8.508,8.508,0,0,0,6.337-2.848,10.182,10.182,0,0,0,2.279-6.515c0-3.169-.855-5.483-2.706-7.263a8.567,8.567,0,0,0-5.839-2.457c-4.949,0-8.616,4.059-8.616,9.542" transform="translate(-250.133 -47.771)" fill="#fff"/><path d="M445.2,62.169h9.363v2.563H445.2V72.85h9.363v2.563H442.207V51.666h12.354V54.23H445.2Zm1.88-13.867a1.083,1.083,0,0,1-2.166-.021,1.083,1.083,0,0,1,2.166.021m4.828,0a1.083,1.083,0,0,1-2.166-.021,1.083,1.083,0,0,1,2.166.021" transform="translate(-332.822 -35.539)" fill="#fff"/><path d="M254.133,186.5a.258.258,0,0,1,.289-.3h.324a.259.259,0,0,1,.288.3v3.926H256.9a.257.257,0,0,1,.3.286v.2a.26.26,0,0,1-.3.293h-2.477a.258.258,0,0,1-.289-.3Z" transform="translate(-191.27 -140.147)" fill="#fff"/><path d="M272.965,186.5a.258.258,0,0,1,.289-.3h.324a.258.258,0,0,1,.288.3v4.405a.258.258,0,0,1-.288.3h-.324a.258.258,0,0,1-.289-.3Z" transform="translate(-205.444 -140.147)" fill="#fff"/><path d="M285.283,186.5a.258.258,0,0,1,.289-.3h2.287a.26.26,0,0,1,.3.293v.2a.257.257,0,0,1-.3.286h-1.675v1.429h1.365a.257.257,0,0,1,.3.286v.2a.26.26,0,0,1-.3.293h-1.365v1.724a.258.258,0,0,1-.288.3h-.324a.258.258,0,0,1-.289-.3Z" transform="translate(-214.715 -140.147)" fill="#fff"/><path d="M303.861,186.5a.258.258,0,0,1,.289-.3h2.407a.26.26,0,0,1,.3.293v.2a.257.257,0,0,1-.3.286h-1.794v1.323h1.393a.257.257,0,0,1,.3.286v.2a.26.26,0,0,1-.3.293h-1.393v1.351h1.907a.257.257,0,0,1,.3.286v.2a.26.26,0,0,1-.3.293H304.15a.258.258,0,0,1-.289-.3Z" transform="translate(-228.697 -140.147)" fill="#fff"/><path d="M333.754,190.526a.408.408,0,0,1-.116-.172.269.269,0,0,1,.074-.236l.155-.225a.268.268,0,0,1,.179-.13.389.389,0,0,1,.229.067l.158.106a1.47,1.47,0,0,0,.225.12,2.113,2.113,0,0,0,.288.1,1.32,1.32,0,0,0,.341.042.856.856,0,0,0,.549-.158.532.532,0,0,0,.024-.806,1.86,1.86,0,0,0-.433-.282q-.26-.127-.559-.254a3.247,3.247,0,0,1-.56-.3,1.576,1.576,0,0,1-.433-.433,1.13,1.13,0,0,1-.172-.644,1.347,1.347,0,0,1,.13-.6,1.384,1.384,0,0,1,.355-.458,1.6,1.6,0,0,1,.531-.292,2.094,2.094,0,0,1,.665-.1,2.235,2.235,0,0,1,.419.039,2.784,2.784,0,0,1,.366.1,2.229,2.229,0,0,1,.3.123,1.656,1.656,0,0,1,.208.123.277.277,0,0,1,.091.4l-.126.232c-.052.1-.113.155-.183.155a.485.485,0,0,1-.218-.056,3.5,3.5,0,0,0-.362-.183,1.247,1.247,0,0,0-.5-.091.9.9,0,0,0-.556.155.511.511,0,0,0-.032.792,1.775,1.775,0,0,0,.433.271q.26.119.56.243a3.119,3.119,0,0,1,.559.3,1.571,1.571,0,0,1,.433.436,1.163,1.163,0,0,1,.172.654,1.482,1.482,0,0,1-.113.574,1.364,1.364,0,0,1-.324.471,1.524,1.524,0,0,1-.517.317,1.964,1.964,0,0,1-.7.116,2.334,2.334,0,0,1-.507-.053,2.893,2.893,0,0,1-.436-.13,2.612,2.612,0,0,1-.348-.165,2.282,2.282,0,0,1-.243-.159" transform="translate(-251.103 -139.891)" fill="#fff"/><path d="M353.276,188.429a2.655,2.655,0,0,1,.19-1.01,2.424,2.424,0,0,1,1.344-1.355,2.674,2.674,0,0,1,1.041-.2,2.787,2.787,0,0,1,.56.053,3.317,3.317,0,0,1,.461.127,2.368,2.368,0,0,1,.359.162,2.987,2.987,0,0,1,.253.158.273.273,0,0,1,.056.408l-.127.2q-.141.232-.4.07a3.033,3.033,0,0,0-.45-.229,1.717,1.717,0,0,0-.676-.123,1.781,1.781,0,0,0-.721.137,1.5,1.5,0,0,0-.524.373,1.6,1.6,0,0,0-.32.549,1.988,1.988,0,0,0-.109.658,2.042,2.042,0,0,0,.113.676,1.714,1.714,0,0,0,.327.57,1.588,1.588,0,0,0,.528.394,1.783,1.783,0,0,0,1.112.1,2.448,2.448,0,0,0,.341-.109,1.827,1.827,0,0,0,.278-.141q.123-.077.208-.141a.253.253,0,0,1,.408.049l.141.19a.268.268,0,0,1-.042.408q-.105.084-.271.193a2.473,2.473,0,0,1-.387.2,2.922,2.922,0,0,1-.5.158,2.941,2.941,0,0,1-1.675-.137,2.437,2.437,0,0,1-.813-.549,2.4,2.4,0,0,1-.521-.827,2.847,2.847,0,0,1-.183-1.027" transform="translate(-265.889 -139.891)" fill="#fff"/><path d="M378.509,186.5a.258.258,0,0,1,.289-.3h.324a.258.258,0,0,1,.288.3v4.405a.258.258,0,0,1-.288.3H378.8a.258.258,0,0,1-.289-.3Z" transform="translate(-284.88 -140.147)" fill="#fff"/><path d="M390.827,186.5a.258.258,0,0,1,.289-.3h2.407a.26.26,0,0,1,.3.293v.2a.257.257,0,0,1-.3.286h-1.794v1.323h1.393a.257.257,0,0,1,.3.286v.2a.26.26,0,0,1-.3.293h-1.393v1.351h1.907a.257.257,0,0,1,.3.286v.2a.26.26,0,0,1-.3.293h-2.519a.258.258,0,0,1-.289-.3Z" transform="translate(-294.151 -140.147)" fill="#fff"/><path d="M410.685,186.5a.258.258,0,0,1,.289-.3h.38a.368.368,0,0,1,.352.2l1.773,2.688c.047.075.1.157.148.246s.1.174.134.254.091.181.134.274h.014c-.009-.094-.019-.185-.028-.274s-.015-.164-.018-.254,0-.171,0-.246V186.5a.261.261,0,0,1,.3-.3h.317a.261.261,0,0,1,.3.3v4.405a.261.261,0,0,1-.3.3h-.38a.361.361,0,0,1-.345-.2l-1.78-2.681q-.071-.112-.144-.246t-.13-.253a2.986,2.986,0,0,1-.141-.275h-.014q.007.141.021.275c.009.08.016.164.021.253s.007.171.007.246v2.583a.258.258,0,0,1-.288.3h-.324a.258.258,0,0,1-.289-.3Z" transform="translate(-309.097 -140.147)" fill="#fff"/><path d="M434.638,188.429a2.655,2.655,0,0,1,.19-1.01,2.426,2.426,0,0,1,1.344-1.355,2.675,2.675,0,0,1,1.041-.2,2.788,2.788,0,0,1,.56.053,3.322,3.322,0,0,1,.461.127,2.373,2.373,0,0,1,.359.162,2.987,2.987,0,0,1,.253.158.273.273,0,0,1,.056.408l-.127.2q-.141.232-.4.07a3.033,3.033,0,0,0-.45-.229,1.716,1.716,0,0,0-.676-.123,1.782,1.782,0,0,0-.721.137,1.5,1.5,0,0,0-.524.373,1.6,1.6,0,0,0-.32.549,1.988,1.988,0,0,0-.109.658,2.042,2.042,0,0,0,.113.676,1.715,1.715,0,0,0,.327.57,1.588,1.588,0,0,0,.528.394,1.783,1.783,0,0,0,1.112.1,2.446,2.446,0,0,0,.341-.109,1.828,1.828,0,0,0,.278-.141q.123-.077.208-.141a.253.253,0,0,1,.408.049l.141.19a.268.268,0,0,1-.042.408q-.105.084-.271.193a2.487,2.487,0,0,1-.387.2,2.924,2.924,0,0,1-.5.158,2.941,2.941,0,0,1-1.675-.137,2.437,2.437,0,0,1-.813-.549,2.4,2.4,0,0,1-.521-.827,2.845,2.845,0,0,1-.183-1.027" transform="translate(-327.125 -139.891)" fill="#fff"/><path d="M459.872,186.5a.258.258,0,0,1,.289-.3h2.407a.26.26,0,0,1,.3.293v.2a.257.257,0,0,1-.3.286h-1.794v1.323h1.393a.257.257,0,0,1,.3.286v.2a.26.26,0,0,1-.3.293h-1.393v1.351h1.907a.257.257,0,0,1,.3.286v.2a.26.26,0,0,1-.3.293h-2.519a.258.258,0,0,1-.289-.3Z" transform="translate(-346.117 -140.147)" fill="#fff"/><path d="M478.642,190.526a.409.409,0,0,1-.116-.172.269.269,0,0,1,.074-.236l.155-.225a.268.268,0,0,1,.179-.13.389.389,0,0,1,.229.067l.158.106a1.473,1.473,0,0,0,.225.12,2.113,2.113,0,0,0,.288.1,1.319,1.319,0,0,0,.341.042.856.856,0,0,0,.549-.158.532.532,0,0,0,.025-.806,1.861,1.861,0,0,0-.433-.282q-.26-.127-.559-.254a3.248,3.248,0,0,1-.56-.3,1.576,1.576,0,0,1-.433-.433,1.131,1.131,0,0,1-.172-.644,1.348,1.348,0,0,1,.13-.6,1.384,1.384,0,0,1,.355-.458,1.6,1.6,0,0,1,.531-.292,2.093,2.093,0,0,1,.665-.1,2.235,2.235,0,0,1,.419.039,2.786,2.786,0,0,1,.366.1,2.229,2.229,0,0,1,.3.123,1.649,1.649,0,0,1,.208.123.277.277,0,0,1,.091.4l-.126.232c-.052.1-.112.155-.183.155a.485.485,0,0,1-.218-.056,3.5,3.5,0,0,0-.362-.183,1.247,1.247,0,0,0-.5-.091.9.9,0,0,0-.556.155.511.511,0,0,0-.032.792,1.774,1.774,0,0,0,.433.271q.26.119.56.243a3.12,3.12,0,0,1,.559.3,1.571,1.571,0,0,1,.433.436,1.163,1.163,0,0,1,.172.654,1.481,1.481,0,0,1-.113.574,1.364,1.364,0,0,1-.324.471,1.525,1.525,0,0,1-.517.317,1.964,1.964,0,0,1-.7.116,2.334,2.334,0,0,1-.507-.053,2.892,2.892,0,0,1-.436-.13,2.605,2.605,0,0,1-.348-.165,2.282,2.282,0,0,1-.243-.159" transform="translate(-360.151 -139.891)" fill="#fff"/><path d="M37.685,17.4a.347.347,0,0,1-.064.284,11.121,11.121,0,0,0-1.478,2.592.513.513,0,0,0,.962.355,10.34,10.34,0,0,1,1.256-2.221.346.346,0,0,1,.246-.14c1.17-.116,5.858-.762,8.334-3.824,2.838-3.511-.356-10.775-.493-11.083a.513.513,0,0,0-.8-.178,79.279,79.279,0,0,0-6.519,6.519c-2.3,2.6-1.749,6.322-1.439,7.7m2.206-7.016a80.251,80.251,0,0,1,5.662-5.74.2.2,0,0,1,.331.08c.74,2.01,2.162,6.722.258,9.077A10.542,10.542,0,0,1,40.3,16.95a4.951,4.951,0,0,1-.806.16c-.033-.043.428-.436.582-.6a12.915,12.915,0,0,0,3.282-5,.531.531,0,0,0-.225-.646.513.513,0,0,0-.732.275,11.646,11.646,0,0,1-2.908,4.5c-.142.147-.542.557-.764.784a.109.109,0,0,1-.186-.062c-.042-.292-.078-.623-.1-.98a6.9,6.9,0,0,1,1.445-5m1.572,11.98a.346.346,0,0,1-.139.174c-.874.567-1.5.99-1.509,1a.513.513,0,1,0,.574.85c.009-.006.609-.411,1.453-.958a.345.345,0,0,1,.326-.028,13.622,13.622,0,0,0,5.158,1.139,8.458,8.458,0,0,0,2.6-.388,10.821,10.821,0,0,0,5.466-4.031.513.513,0,0,0-.23-.748c-.24-.1-5.894-2.5-8.931-1.257-3.507,1.435-4.525,3.567-4.77,4.251m12.4-2.4a.2.2,0,0,1,.084.329,10.021,10.021,0,0,1-4.339,2.876,10.3,10.3,0,0,1-6.362-.453.091.091,0,0,1-.012-.164,12.716,12.716,0,0,1,4.317-1.051l.581-.077a.534.534,0,0,0,.475-.527.511.511,0,0,0-.582-.493l-.609.081a16.4,16.4,0,0,0-4.061.88.047.047,0,0,1-.055-.074,8.638,8.638,0,0,1,3.316-2.231c1.992-.815,5.582.3,7.246.9M32.555,13.948a.277.277,0,0,1,.146.207c.151.994.324,1.694.334,1.735a.513.513,0,0,0,.5.389.5.5,0,0,0,.124-.015.513.513,0,0,0,.374-.621c0-.009-.174-.707-.322-1.686a.279.279,0,0,1,.088-.249c.966-.878,3.542-3.507,3.9-6.844A10.826,10.826,0,0,0,36.229.231.512.512,0,0,0,35.5.1c-.2.141-4.881,3.519-5.17,7.941-.269,4.123,1.392,5.489,2.222,5.911M31.357,8.1c.2-3.084,2.976-5.723,4.185-6.733a.105.105,0,0,1,.163.035,10.045,10.045,0,0,1,.97,5.349,10.347,10.347,0,0,1-3.043,5.679.053.053,0,0,1-.09-.036,11.117,11.117,0,0,1,.919-4.953.532.532,0,0,0-.189-.658.513.513,0,0,0-.747.237,12.262,12.262,0,0,0-1,5.529.052.052,0,0,1-.09.039c-.585-.605-1.245-1.873-1.075-4.489m5.275,47.884a.513.513,0,0,1-.268.674,25.763,25.763,0,0,1-10.279,2.123q-.554,0-1.111-.023A26.049,26.049,0,1,1,27.126,6.707a.513.513,0,0,1,.491.534.507.507,0,0,1-.534.491,25.024,25.024,0,0,0-2.066,50.005A24.783,24.783,0,0,0,35.958,55.72a.514.514,0,0,1,.674.268m18.4-30.823a1.218,1.218,0,0,0-1.163-.219,3.147,3.147,0,0,0-1.8,1.972,4.5,4.5,0,0,1-2.289,2.636,3.074,3.074,0,0,0-.212-1.7.513.513,0,0,0-.643-.261l-5.875,2.189a1.661,1.661,0,0,0-.917,1.053,3.734,3.734,0,0,0-.167,1.97l2.865,16.429a.13.13,0,0,1-.031.109c-.547.617-1.127,1.21-1.733,1.771a.127.127,0,0,1-.2-.042c-.5-1.125-1.454-3.223-2.71-5.876-1.555-3.283-5.3-3.213-5.475-3.206l-5.275.216a1.565,1.565,0,0,1-1.628-1.5,1.567,1.567,0,0,1,1.494-1.629l.126,0c2.857-.076,3.9-.471,5-7.709a20.039,20.039,0,0,1,.766-1.87c.26-.59.423-.962.488-1.153.25-.749-.443-1.248-.948-1.613-.223-.161-.6-.43-.626-.565a17.379,17.379,0,0,0-1.932-5.046c-.192-.369-.4-.768-.622-1.211,0-.109,0-.181,0-.211a5.17,5.17,0,0,0-1.8-4.048c-1.78-1.587-4.572-2.242-7.663-1.8A17.194,17.194,0,0,0,8.719,23.962a20.927,20.927,0,0,0-1.688,6.383c-.041.4-.084.811-.089,1.221,0,.341.012.964.012.964a16.226,16.226,0,0,0,4.136,10.095.3.3,0,0,1,.081.194,4.906,4.906,0,0,0,1.543,3.251,5.293,5.293,0,0,0,3.117,1.289.386.386,0,0,1,.31.224c.5,1.074,1.995,3.325,5.934,3.821a10.9,10.9,0,0,0,1.366.089c4.887,0,6.443-3.659,6.592-4.737a.513.513,0,0,0-.674-.556c-.156.053-3.851,1.265-5.947-1.539a5.525,5.525,0,0,1-.463-.852c-.59-1.235-1.482-3.077-4.326-2.858a.276.276,0,0,1-.232-.093c-.077-.091-.188-.208-.23-.252a11.149,11.149,0,0,1-2.471-3.851,5.686,5.686,0,0,1-.264-.889c-.015-.072-.03-.144-.048-.217a.56.56,0,0,0-.546-.426.511.511,0,0,0-.469.458,1.517,1.517,0,0,0,.049.492,2.355,2.355,0,0,1,.1.452,5.385,5.385,0,0,1-.77,3.424,5.235,5.235,0,0,1-1.73,1.777.238.238,0,0,1-.3-.047,14.85,14.85,0,0,1-3.7-9.176l-.036-.8a.166.166,0,0,1,.164-.174,14.546,14.546,0,0,0,2.405-.251.088.088,0,0,1,.087.033c.06.08.189.251.259.334a5.6,5.6,0,0,0,4.016,2.291c.063,0,.126,0,.188,0a5.756,5.756,0,0,0,3.863-1.761.513.513,0,0,0-.035-.728,7.974,7.974,0,0,0-3.245-1.868.068.068,0,0,1-.014-.126q.857-.454,1.679-1a.074.074,0,0,1,.084,0,6.208,6.208,0,0,0,3.6,1.346,4.369,4.369,0,0,0,.925-.1,5.693,5.693,0,0,0,3.477-2.724.512.512,0,0,0-.218-.7,7.651,7.651,0,0,0-4.07-.974.048.048,0,0,1-.038-.08,18.343,18.343,0,0,0,1.421-1.762.046.046,0,0,1,.049-.018,5.605,5.605,0,0,0,1.391.194,3.413,3.413,0,0,0,1.931-.549,4.055,4.055,0,0,0,1.6-2.713.512.512,0,0,0-.457-.568,4.956,4.956,0,0,0-3.527.771,3.181,3.181,0,0,0-.223-1.036,4.058,4.058,0,0,0-2.341-2.107.513.513,0,0,0-.647.335c-.916,2.935.43,4.5,1.29,5.156a.046.046,0,0,1,.009.064,17.526,17.526,0,0,1-1.547,1.866.05.05,0,0,1-.083-.047A4.31,4.31,0,0,0,20.1,23.8a5.694,5.694,0,0,0-1.978-3.949.513.513,0,0,0-.725.075c-3.009,3.745-1.545,6.692-.764,7.8a.055.055,0,0,1-.016.078,18.718,18.718,0,0,1-2.439,1.34.075.075,0,0,1-.092-.11,4.386,4.386,0,0,0,.55-1.279,5.693,5.693,0,0,0-.915-4.32.512.512,0,0,0-.72-.111c-3.568,2.648-3.261,5.6-2.819,7.035a.032.032,0,0,1-.026.041,13.469,13.469,0,0,1-1.98.195.123.123,0,0,1-.124-.135,19.91,19.91,0,0,1,1.6-6.087,16.173,16.173,0,0,1,12.557-9.511c2.79-.4,5.282.162,6.835,1.547A4.119,4.119,0,0,1,30.5,19.686c0,.456-.149,11.182-9.758,13.978a1.735,1.735,0,0,0-1,.731c-.316.511-.576,1.546,1.231,2.729a.512.512,0,0,0,.74-.2.532.532,0,0,0-.2-.671c-.464-.307-1.173-.873-.9-1.317a.718.718,0,0,1,.419-.286c7.631-2.221,9.714-9.049,10.283-12.665a.062.062,0,0,1,.117-.015,15.525,15.525,0,0,1,1.644,4.415,2.242,2.242,0,0,0,1.028,1.178c.127.092.309.223.434.335a.275.275,0,0,1,.068.31c-.089.217-.236.55-.38.875a13.42,13.42,0,0,0-.842,2.129c-1.025,6.758-1.778,6.778-4.013,6.838l-.134,0a2.592,2.592,0,0,0,.1,5.181l.107,0,5.268-.216c.137,0,3.248-.05,4.512,2.62,1.612,3.4,2.718,5.89,3.019,6.572a.553.553,0,0,0,.439.351.957.957,0,0,0,.692-.338c.845-.822,1.716-1.634,2.482-2.528a25.891,25.891,0,0,0,4.689-8.021,2.488,2.488,0,0,0-.247-2.193l-2.355-3.634-.023-.033a.414.414,0,0,1,.122-.61l.037-.024L52.21,32.3a6.455,6.455,0,0,0,3.156-4.887c.011-.05.024-.106.038-.164a1.966,1.966,0,0,0-.37-2.085M22.027,44.251a6.172,6.172,0,0,0,.567,1.025,6.06,6.06,0,0,0,5.895,2.156.144.144,0,0,1,.146.211c-.73,1.339-2.587,3.226-6.43,2.744C18.489,49.919,17.3,47.733,17,47a.163.163,0,0,1,.033-.174,6.8,6.8,0,0,0,1.24-2.278,6.179,6.179,0,0,0,.342-2.45.111.111,0,0,1,.1-.121c2.138-.16,2.734,1.077,3.308,2.28m-7.409-3.668a6.626,6.626,0,0,0,.759-1.792.074.074,0,0,1,.137-.02,12.193,12.193,0,0,0,1.571,2.178c.041.045.158.228.188.271a3.369,3.369,0,0,1,.1,2.78,6.114,6.114,0,0,1-1.049,2.088.906.906,0,0,1-.28.238.169.169,0,0,1-.094.016,4.361,4.361,0,0,1-2.5-.992,4.08,4.08,0,0,1-1.226-2.278.264.264,0,0,1,.14-.271,6.02,6.02,0,0,0,2.257-2.218m3.189-8.64a4.422,4.422,0,0,1-2.861,1.066,4.524,4.524,0,0,1-3.139-1.776.045.045,0,0,1,.014-.071c.084-.038.25-.111.394-.165.3-.113.665-.235.81-.286a3.46,3.46,0,0,1,1.1-.213,5.775,5.775,0,0,1,3.68,1.446m6.247-4.967a.146.146,0,0,1,.058.224,4.315,4.315,0,0,1-2.385,1.6,4.435,4.435,0,0,1-3.344-.835.089.089,0,0,1-.005-.146q.408-.31.8-.638a2.872,2.872,0,0,1,1.029-.579,5.647,5.647,0,0,1,3.852.369M26.337,20.9c.027.023-.078.232-.135.357a2.539,2.539,0,0,1-.877,1.082,2.791,2.791,0,0,1-2.089.309.059.059,0,0,1-.044-.083,3.132,3.132,0,0,1,2.761-1.655,1.907,1.907,0,0,1,.384-.01m-5.231-2.053a.068.068,0,0,1,.1-.047,2.691,2.691,0,0,1,1.127,1.235,2.552,2.552,0,0,1,.028,1.692c-.032.111-.108.316-.149.421a.052.052,0,0,1-.082.023,3.2,3.2,0,0,1-1.026-3.324m-3.331,2.288a.109.109,0,0,1,.17-.011,4.345,4.345,0,0,1,1.132,2.7,4.461,4.461,0,0,1-1.518,3.15.144.144,0,0,1-.222-.023,4.657,4.657,0,0,1-.594-1.361,5.34,5.34,0,0,1,1.032-4.451M13.165,24.5a4.415,4.415,0,0,1,.475,3.016,4.032,4.032,0,0,1-1.6,2.216,3.838,3.838,0,0,1-.474.291,1.025,1.025,0,0,1-.359.146c-.053-.014-.141-.387-.161-.474-.271-1.184-.24-3.222,2.12-5.2M54.407,27.01c-.016.067-.031.13-.043.188-.464,2.167-.9,3.036-2.731,4.254l-4.12,2.872a1.44,1.44,0,0,0-.416,2.091l2.345,3.62a1.457,1.457,0,0,1,.144,1.285,24.825,24.825,0,0,1-3.7,6.713.131.131,0,0,1-.231-.058L42.979,32.628a2.712,2.712,0,0,1,.115-1.429.749.749,0,0,1,.393-.484,4.582,4.582,0,0,1,.633-.238L48.6,28.805a.14.14,0,0,1,.189.119,1.578,1.578,0,0,1-.1.732,1.644,1.644,0,0,1-.708.764l-.667.3a.5.5,0,0,0-.1.064l-1.505.73a.535.535,0,0,0-.286.65.513.513,0,0,0,.706.287l1.72-.835a4.168,4.168,0,0,0,.631-.3l.928-.422a5.986,5.986,0,0,0,3.645-3.683,2.188,2.188,0,0,1,1.112-1.288c.136-.041.183,0,.213.024.217.181.138.6.029,1.058" transform="translate(0 0)" fill="#fff"/></g></g><rect width="160" height="160" transform="translate(8626 12804)" fill="none" opacity="0"/></g></svg>