<?xml version="1.0" encoding="UTF-8"?><svg xmlns="http://www.w3.org/2000/svg" xmlns:xlink="http://www.w3.org/1999/xlink" width="27.91" height="253.248" viewBox="0 0 27.91 253.248"><defs><clipPath id="mainlogo"><rect width="253.249" height="27.91" fill="#e9f0ee"/></clipPath></defs><g transform="translate(-10035.684 8469.248) rotate(-90)"><g transform="translate(8216 10035.684)"><g clip-path="url(#mainlogo)"><path d="M1018.556,15.169c-1.238,3.519-3.745,6.328-9.46,6.328-6.7,0-10.473-4.709-10.473-10.7S1002.811,0,1009.215,0c5.852,0,8.552,3.12,9.419,6.49h-2.406c-1.024-2.439-2.835-4.464-7.047-4.464-4.982,0-8.091,3.656-8.091,8.693,0,4.925,3.125,8.758,8.12,8.758,4.153,0,5.783-1.816,6.994-4.307Z" transform="translate(-878.473 0.001)" fill="#e9f0ee"/><path d="M1193.921,58.287c0,3.919-2.475,7.693-7.656,7.693a7.341,7.341,0,0,1-7.528-7.669,7.593,7.593,0,1,1,15.184-.024m-12.933.024c0,2.911,1.917,5.787,5.353,5.787,3.591,0,5.32-2.656,5.32-5.773,0-3.136-1.958-5.844-5.4-5.844-3.548,0-5.276,2.71-5.276,5.83" transform="translate(-1036.916 -44.51)" fill="#e9f0ee"/><path d="M1321.715,54.764c0-1.255,0-2.505-.029-3.76h2.127a19.77,19.77,0,0,1,.072,2.312,5.172,5.172,0,0,1,4.786-2.718,4.424,4.424,0,0,1,4.494,2.91,5.46,5.46,0,0,1,5.04-2.91c2.822,0,5.142,1.62,5.142,5.915v9.061h-2.175V56.6c0-1.825-.58-4.1-3.378-4.1-2.513,0-4.169,1.734-4.169,5.1v7.972h-2.179V56.459c0-1.833-.619-3.954-3.4-3.954-3,0-4.149,2.384-4.149,5.36v7.709h-2.179Z" transform="translate(-1162.666 -44.51)" fill="#e9f0ee"/><path d="M1525.014,54.764c0-1.255,0-2.505-.029-3.76h2.127a19.981,19.981,0,0,1,.072,2.312,5.171,5.171,0,0,1,4.786-2.718,4.424,4.424,0,0,1,4.494,2.91,5.459,5.459,0,0,1,5.04-2.91c2.822,0,5.142,1.62,5.142,5.915v9.061h-2.175V56.6c0-1.825-.58-4.1-3.378-4.1-2.513,0-4.169,1.734-4.169,5.1v7.972h-2.179V56.459c0-1.833-.619-3.954-3.4-3.954-3,0-4.149,2.384-4.149,5.36v7.709h-2.179Z" transform="translate(-1341.505 -44.51)" fill="#e9f0ee"/><path d="M1738.639,58.287c0,3.919-2.475,7.693-7.656,7.693a7.341,7.341,0,0,1-7.528-7.669,7.593,7.593,0,1,1,15.184-.024m-12.933.024c0,2.911,1.917,5.787,5.353,5.787,3.591,0,5.32-2.656,5.32-5.773,0-3.136-1.958-5.844-5.4-5.844-3.547,0-5.276,2.71-5.276,5.83" transform="translate(-1516.096 -44.51)" fill="#e9f0ee"/><path d="M1864.942,54.677c0-1.226,0-2.577-.029-3.673h2.121c.058.527.092,1.83.1,2.934a5.465,5.465,0,0,1,5.406-3.34c3.372,0,5.617,2.074,5.617,6.14v8.836h-2.2V57.161c0-2.61-1-4.637-3.9-4.637-3.292,0-4.924,2.553-4.924,6.148v6.9h-2.193Z" transform="translate(-1640.534 -44.51)" fill="#e9f0ee"/><path d="M1993.745,61.183c.567,1.924,2.194,3.023,5.025,3.023,3.045,0,4.166-1.085,4.166-2.565,0-1.337-.759-2.288-4.691-2.742-5-.6-6.016-2.307-6.016-4.132,0-1.787,1.451-4.17,6-4.17,5.013,0,6.321,2.657,6.456,4.3h-2.223c-.227-.934-.846-2.548-4.382-2.548-2.979,0-3.629,1.309-3.629,2.234,0,1.227.75,1.959,4.267,2.413,5.347.688,6.441,2.292,6.441,4.494,0,2.606-1.988,4.485-6.513,4.485-4.323,0-6.612-1.831-7.125-4.8Z" transform="translate(-1751.906 -44.51)" fill="#e9f0ee"/><path d="M162.3,59.874a5.269,5.269,0,0,0,5.407,5.348,4.853,4.853,0,0,0,4.676-2.611h2.189c-.757,2.046-2.777,4.46-7.04,4.46-5,0-7.441-3.772-7.441-7.64,0-4.487,2.98-7.742,7.363-7.742,5.491,0,7.34,4.094,7.34,7.577,0,.211,0,.379,0,.608Zm10.175-1.688a4.663,4.663,0,0,0-5.045-4.685c-3.153,0-4.787,2.024-5.072,4.685Z" transform="translate(-140.832 -45.47)" fill="#e9f0ee"/><path d="M500.461,59.874a5.269,5.269,0,0,0,5.407,5.348,4.852,4.852,0,0,0,4.676-2.611h2.189c-.757,2.046-2.777,4.46-7.04,4.46-5,0-7.441-3.772-7.441-7.64,0-4.487,2.98-7.742,7.363-7.742,5.491,0,7.34,4.094,7.34,7.577,0,.211,0,.379,0,.608Zm10.175-1.688a4.663,4.663,0,0,0-5.045-4.685c-3.154,0-4.787,2.024-5.072,4.685Z" transform="translate(-438.304 -45.47)" fill="#e9f0ee"/><rect width="2.189" height="19.14" transform="translate(76.679 2.055)" fill="#e9f0ee"/><path d="M674.555,59.874a5.268,5.268,0,0,0,5.407,5.348,4.853,4.853,0,0,0,4.677-2.611h2.189c-.757,2.046-2.777,4.46-7.04,4.46-5,0-7.441-3.772-7.441-7.64,0-4.487,2.98-7.742,7.363-7.742,5.491,0,7.34,4.094,7.34,7.577,0,.211,0,.379,0,.608Zm10.175-1.688a4.663,4.663,0,0,0-5.045-4.685c-3.153,0-4.786,2.024-5.072,4.685Z" transform="translate(-591.452 -45.47)" fill="#e9f0ee"/><path d="M301.614,55.073V52.13h-2.121c.029,1.313.029,2.65.029,3.963V66.7h2.092V58.038a6.109,6.109,0,0,1,6.075-4.15V51.729a7.19,7.19,0,0,0-6.075,3.344" transform="translate(-263.459 -45.505)" fill="#e9f0ee"/><path d="M396.187,21.649H393.3c-2.385,1.994-6.984,5.816-8.559,7.171V17.08h-2.189V36.22h2.189V30.84l2.867-2.242Z" transform="translate(-336.526 -15.025)" fill="#e9f0ee"/><path d="M427.312,112.814h-2.74l6.471,7.622h2.842Z" transform="translate(-373.49 -99.241)" fill="#e9f0ee"/><path d="M802.57,67.993c-.479-1.286-2.34-5.545-5.6-12.934h-2.414l5.784,12.934Z" transform="translate(-698.955 -48.435)" fill="#e9f0ee"/><path d="M814.231,55.059c-3.021,7.225-3.888,10.067-5.155,12.934s-2.492,6.458-5.524,6.458h-1.647v1.89l1.8,0c3.048,0,4.573-1.42,6.875-7.056l5.956-14.229Z" transform="translate(-705.423 -48.435)" fill="#e9f0ee"/><path d="M12.727,13.153A4.4,4.4,0,0,0,16.148,8.76c0-3.3-2.353-5.15-6.63-5.15H0V24.239l2.309-1.959V5.588h6.7c2.585,0,4.693.73,4.693,3.331,0,2.215-1.645,3.323-4.82,3.323H4.359l-.583,1.974H8.746c3.614,0,5.805,1.361,5.805,4.074,0,3.187-2.846,3.975-5.42,3.975H2.319v1.974H9.793c3.706,0,7.225-1.806,7.225-6.009,0-3.338-2.463-4.61-4.291-5.077" transform="translate(0 -3.176)" fill="#e9f0ee"/></g></g></g></svg>
