<svg xmlns="http://www.w3.org/2000/svg" width="53.006" height="23.309" viewBox="0 0 53.006 23.309"><path d="M383.2,176.636h-5.923v.544a5.77,5.77,0,0,1,.705.1,1.165,1.165,0,0,1,.511.224c.354.3.346.866.346,1.888v6.86c0,1.4.125,3.373-1.853,3.347a2.129,2.129,0,0,1-1.989-1.719h-.681a3.285,3.285,0,0,0,3.66,3.1h.011c2.028,0,3.838-.932,3.835-4.1v-7.494c0-1.022-.007-1.563.346-1.865a1.544,1.544,0,0,1,1.031-.348Z" transform="translate(-351.442 -171.972)" fill="#10312b"/><path d="M485.789,176.638h-5.923v.544a1.543,1.543,0,0,1,1.031.348c.283.242.335.638.344,1.311,0,.2,0,.432,0,.686v8.205c0,.254,0,.482,0,.686-.009.674-.061,1.069-.344,1.311a1.543,1.543,0,0,1-1.031.348v.544h8.95l.944-2.739h-.7a2.623,2.623,0,0,1-2.722,1.681,3.166,3.166,0,0,1-1.7-.287c-.3-.193-.415-.7-.42-1.567V179.4c0-1.022-.008-1.586.346-1.888a2.25,2.25,0,0,1,1.216-.325v-.544Z" transform="translate(-447.243 -171.974)" fill="#10312b"/><g transform="translate(0 0)"><g transform="translate(6.873 3.578)"><path d="M203.019,184.171a5.217,5.217,0,0,0,.788-.453c.053-.037.108-.072.159-.11a6.867,6.867,0,0,0,.873-.787,8.727,8.727,0,0,0,.956-1.217,11.4,11.4,0,0,0,.617-1.062,15.237,15.237,0,0,0,1.432-4.563,19.722,19.722,0,0,0,.227-3.022h0a19.7,19.7,0,0,0-.227-3.022,15.235,15.235,0,0,0-1.432-4.563c-.084-.165-.174-.329-.266-.491a13.855,13.855,0,0,0-.962,2.223,17.432,17.432,0,0,1,.847,4.348c.034.5.048,1,.048,1.5h0c0,.5-.012,1.006-.047,1.5a16.85,16.85,0,0,1-1.191,5.266,13.15,13.15,0,0,1-.955,1.875c-.087.141-.167.285-.26.422-.187.279-.39.553-.606.819a10.053,10.053,0,0,1-.789.873,8.152,8.152,0,0,1-.953.8c-.027.019-.053.04-.08.059v.032h0A4.663,4.663,0,0,0,203.019,184.171Zm0-1.323h0Z" transform="translate(-201.198 -164.88)" fill="#10312b"/></g><g transform="translate(10.515 1.194)"><path d="M242.432,160.753a5.225,5.225,0,0,0,.788-.453c.053-.037.108-.072.159-.11a8.734,8.734,0,0,0,2.446-3.066,15.235,15.235,0,0,0,1.432-4.563,19.668,19.668,0,0,0,.227-3.022h0a19.7,19.7,0,0,0-.227-3.022,15.24,15.24,0,0,0-1.432-4.563,8.979,8.979,0,0,0-2.211-2.876,10.879,10.879,0,0,0-.839,1.018q.135.185.262.373a15.4,15.4,0,0,1,2.406,7.564c.034.5.051,1,.051,1.5s-.017,1.006-.051,1.5a15.4,15.4,0,0,1-2.406,7.564c-.187.279-.39.553-.606.819a10.1,10.1,0,0,1-.788.873,8.187,8.187,0,0,1-.953.8c-.027.019-.053.04-.08.059v.032h0A4.66,4.66,0,0,0,242.432,160.753Z" transform="translate(-240.611 -139.078)" fill="#10312b"/></g><g transform="translate(14.157 0)"><path d="M282.792,148.466a8.729,8.729,0,0,0,2.446-3.065,15.233,15.233,0,0,0,1.432-4.563,19.683,19.683,0,0,0,.227-3.022h0a19.677,19.677,0,0,0-.227-3.022,15.232,15.232,0,0,0-1.432-4.563,8.728,8.728,0,0,0-2.446-3.066,4.921,4.921,0,0,0-2.768-1h0v.031a9.716,9.716,0,0,1,2.426,2.554,15.4,15.4,0,0,1,2.406,7.564q.051.748.051,1.505t-.051,1.5a15.4,15.4,0,0,1-2.407,7.563,9.7,9.7,0,0,1-2.426,2.554v.032h0A4.921,4.921,0,0,0,282.792,148.466Z" transform="translate(-280.024 -126.161)" fill="#10312b"/></g><g transform="translate(7.284)"><path d="M210.692,126.6a5.227,5.227,0,0,0-.788.453c-.053.037-.108.072-.159.11a6.887,6.887,0,0,0-.873.787,8.739,8.739,0,0,0-.955,1.217,11.357,11.357,0,0,0-.617,1.062,15.236,15.236,0,0,0-1.432,4.563,19.71,19.71,0,0,0-.227,3.022h0a19.685,19.685,0,0,0,.227,3.022A15.232,15.232,0,0,0,207.3,145.4c.084.165.174.329.266.491a13.859,13.859,0,0,0,.962-2.223,17.425,17.425,0,0,1-.847-4.348c-.034-.5-.048-1-.048-1.5h0c0-.5.012-1.006.047-1.505a16.845,16.845,0,0,1,1.191-5.266,13.139,13.139,0,0,1,.955-1.876c.087-.141.167-.285.26-.422.187-.279.39-.553.606-.819a10.064,10.064,0,0,1,.788-.873,8.153,8.153,0,0,1,.953-.8c.027-.019.053-.04.08-.059v-.032h0A4.661,4.661,0,0,0,210.692,126.6Zm0,1.323h0Z" transform="translate(-205.64 -126.16)" fill="#10312b"/></g><g transform="translate(3.642 0)"><path d="M171.281,126.6a5.259,5.259,0,0,0-.788.453c-.053.037-.108.072-.159.111a8.73,8.73,0,0,0-2.446,3.066,15.233,15.233,0,0,0-1.432,4.563,19.677,19.677,0,0,0-.226,3.022h0a19.7,19.7,0,0,0,.227,3.022,15.241,15.241,0,0,0,1.432,4.563,8.98,8.98,0,0,0,2.211,2.876,10.9,10.9,0,0,0,.839-1.018q-.135-.185-.262-.373a15.4,15.4,0,0,1-2.406-7.564c-.034-.5-.051-1-.051-1.5s.017-1.006.051-1.505a15.4,15.4,0,0,1,2.406-7.564c.187-.279.39-.553.606-.819a10.111,10.111,0,0,1,.788-.873,8.2,8.2,0,0,1,.953-.8c.027-.019.053-.04.08-.059v-.032h0A4.661,4.661,0,0,0,171.281,126.6Z" transform="translate(-166.228 -126.161)" fill="#10312b"/></g><path d="M130.921,127.164a8.726,8.726,0,0,0-2.446,3.065,15.233,15.233,0,0,0-1.432,4.563,19.7,19.7,0,0,0-.227,3.022h0a19.69,19.69,0,0,0,.227,3.022,15.239,15.239,0,0,0,1.432,4.563,8.728,8.728,0,0,0,2.446,3.066,4.921,4.921,0,0,0,2.768,1h0v-.032a9.714,9.714,0,0,1-2.427-2.554,15.4,15.4,0,0,1-2.406-7.564q-.051-.749-.051-1.5t.051-1.505a15.4,15.4,0,0,1,2.406-7.564,9.7,9.7,0,0,1,2.426-2.554v-.032h0A4.92,4.92,0,0,0,130.921,127.164Z" transform="translate(-126.816 -126.16)" fill="#10312b"/><g transform="translate(8.695 20.301)"><path d="M241.251,347.672a10.87,10.87,0,0,0,.838-1.018q-.135-.185-.262-.373c-.092-.137-.173-.281-.26-.422a8.737,8.737,0,0,1-.955,1.217,7.066,7.066,0,0,0,.639.6" transform="translate(-238.791 -345.858)" fill="#10312b"/><path d="M261.106,368.741a5.224,5.224,0,0,1-.788.453,4.659,4.659,0,0,0,1.82.44h0V369.6a8.107,8.107,0,0,1-1.033-.862" transform="translate(-256.676 -366.627)" fill="#10312b"/><path d="M222.385,369.608c.1-.011.2-.027.294-.044-.1-.071-.2-.143-.294-.219a8.489,8.489,0,0,1-.689-.607,5.232,5.232,0,0,1-.788.453,4.867,4.867,0,0,0,1.182.372c.1.017.2.033.295.044m.344.024V369.6l-.049-.036c-.1.017-.2.033-.294.044.114.012.229.021.344.024Z" transform="translate(-220.908 -366.625)" fill="#10312b"/></g><path d="M225.467,139.08a10.866,10.866,0,0,0-.838,1.018q.135.185.262.373c.092.137.173.282.26.422a8.745,8.745,0,0,1,.955-1.217,7.064,7.064,0,0,0-.639-.6" transform="translate(-215.591 -137.886)" fill="#10312b"/><path d="M202.235,127.054a5.245,5.245,0,0,1,.788-.453,4.661,4.661,0,0,0-1.82-.44h0v.032a8.108,8.108,0,0,1,1.033.861" transform="translate(-194.328 -126.161)" fill="#10312b"/><path d="M242.435,126.6a4.865,4.865,0,0,0-1.183-.372c-.1-.017-.2-.033-.294-.044h0c-.114-.012-.229-.021-.343-.024h0v.032l.049.037h0c.1.071.2.143.294.219a8.486,8.486,0,0,1,.689.607,5.231,5.231,0,0,1,.788-.453" transform="translate(-230.099 -126.161)" fill="#10312b"/></g><path d="M592.6,176.638h-5.923v.544a1.543,1.543,0,0,1,1.031.348c.283.242.335.638.344,1.311,0,.2,0,.432,0,.686v8.205c0,.254,0,.482,0,.686-.009.674-.061,1.069-.344,1.311a1.543,1.543,0,0,1-1.031.348v.544h8.95l.944-2.739h-.7a2.623,2.623,0,0,1-2.722,1.681,3.167,3.167,0,0,1-1.7-.287c-.3-.193-.415-.7-.42-1.567V179.4c0-1.022-.008-1.586.346-1.888a2.25,2.25,0,0,1,1.216-.325v-.544Z" transform="translate(-544.182 -171.974)" fill="#10312b"/><g transform="translate(50.034 4.608)"><path d="M669.775,176.031a1.515,1.515,0,0,1,.733.191,1.381,1.381,0,0,1,.552.548,1.49,1.49,0,0,1,0,1.487,1.4,1.4,0,0,1-.549.549,1.49,1.49,0,0,1-1.481,0,1.4,1.4,0,0,1-.549-.549,1.49,1.49,0,0,1,0-1.487,1.381,1.381,0,0,1,.552-.548A1.514,1.514,0,0,1,669.775,176.031Zm0,.291a1.212,1.212,0,0,0-.588.153,1.113,1.113,0,0,0-.443.441,1.2,1.2,0,0,0,0,1.2,1.131,1.131,0,0,0,.441.443,1.19,1.19,0,0,0,1.189,0,1.14,1.14,0,0,0,.441-.443,1.2,1.2,0,0,0,0-1.2,1.112,1.112,0,0,0-.444-.441A1.217,1.217,0,0,0,669.777,176.322Z" transform="translate(-668.289 -176.031)" fill="#10312b"/><path d="M679,185.2c-.063-.107-.1-.168-.111-.183a.745.745,0,0,0-.1-.115.374.374,0,0,0-.105-.056.484.484,0,0,0,.3-.143.4.4,0,0,0,.106-.277.419.419,0,0,0-.056-.215.373.373,0,0,0-.14-.144.592.592,0,0,0-.235-.06q-.052,0-.479,0h-.3v1.5h.3v-.616h.079a.336.336,0,0,1,.21.063,1.013,1.013,0,0,1,.21.309l.125.243h.376Zm-.373-.569a1.507,1.507,0,0,1-.327.02h-.124v-.409h.124a1.454,1.454,0,0,1,.326.021.2.2,0,0,1,.1.07.185.185,0,0,1,.036.111.192.192,0,0,1-.137.186Z" transform="translate(-676.989 -183.269)" fill="#10312b"/></g></svg>