<svg xmlns="http://www.w3.org/2000/svg" xmlns:xlink="http://www.w3.org/1999/xlink" width="55.522" height="26.78" viewBox="0 0 55.522 26.78"><defs><linearGradient id="azoe" y1="0.5" x2="1" y2="0.5" gradientUnits="objectBoundingBox"><stop offset="0.024" stop-color="#63c4c6"/><stop offset="1" stop-color="#533494"/></linearGradient></defs><g transform="translate(4426.004 -14849)"><path d="M9.974,11.012a5.581,5.581,0,0,1-1.135-3.52,5.383,5.383,0,0,1,5.352-5.66A5.322,5.322,0,0,1,18.181,3.7,5.532,5.532,0,0,1,19.446,7.54a5.408,5.408,0,0,1-1.833,4.2,5.287,5.287,0,0,1-3.454,1.3A5.411,5.411,0,0,1,9.974,11.012Zm.26-3.569c0,2.515,1.654,4.347,3.892,4.347a3.878,3.878,0,0,0,2.887-1.3,4.642,4.642,0,0,0,1.038-2.968,4.285,4.285,0,0,0-1.233-3.308A3.9,3.9,0,0,0,14.159,3.1,4.038,4.038,0,0,0,10.234,7.443ZM0,12.845,6.115,3.194H.681V2.026H8.369L2.255,11.677H7.736v1.168Zm21.219,0V2.026h5.629V3.194H22.582V6.81h4.266V7.979H22.582v3.7h4.266v1.167ZM24.652.483a.493.493,0,0,1,.986.01.493.493,0,0,1-.986-.01Zm-2.2,0a.493.493,0,0,1,.986.01.493.493,0,0,1-.986-.01Z" transform="translate(-4397.391 14854.321)" fill="#424142"/><path d="M25.88,2.5a1.487,1.487,0,0,1-.212-.063A1.265,1.265,0,0,1,25.5,2.36a1.028,1.028,0,0,1-.12-.078l-.006,0a.276.276,0,0,1-.076-.116.2.2,0,0,1,.047-.189l.068-.1a.208.208,0,0,1,.145-.1.257.257,0,0,1,.158.042l0,0,.073.048a.564.564,0,0,0,.088.048A1.138,1.138,0,0,0,26,1.956a.517.517,0,0,0,.132.016.308.308,0,0,0,.2-.053.154.154,0,0,0,.007-.231.766.766,0,0,0-.176-.114q-.116-.057-.251-.113a1.592,1.592,0,0,1-.27-.147.81.81,0,0,1-.221-.221A.6.6,0,0,1,25.32.749a.712.712,0,0,1,.068-.311A.72.72,0,0,1,25.573.2a.817.817,0,0,1,.271-.149A1.046,1.046,0,0,1,26.175,0a1.124,1.124,0,0,1,.208.019,1.28,1.28,0,0,1,.178.047,1.03,1.03,0,0,1,.147.061.787.787,0,0,1,.106.063.215.215,0,0,1,.068.3l-.058.105a.179.179,0,0,1-.161.117.311.311,0,0,1-.139-.035l-.005,0a1.463,1.463,0,0,0-.156-.079.484.484,0,0,0-.194-.034.323.323,0,0,0-.2.053.132.132,0,0,0-.059.115.133.133,0,0,0,.049.107.707.707,0,0,0,.176.11c.079.037.164.073.252.109a1.559,1.559,0,0,1,.271.145.816.816,0,0,1,.221.223.617.617,0,0,1,.093.347.76.76,0,0,1-.058.3.713.713,0,0,1-.168.246.8.8,0,0,1-.265.163.992.992,0,0,1-.35.059A1.179,1.179,0,0,1,25.88,2.5Zm-4.794-.072a1.225,1.225,0,0,1-.4-.27,1.19,1.19,0,0,1-.257-.407,1.391,1.391,0,0,1-.09-.5,1.3,1.3,0,0,1,.094-.493A1.193,1.193,0,0,1,21.1.1,1.313,1.313,0,0,1,21.6,0a1.368,1.368,0,0,1,.273.026A1.463,1.463,0,0,1,22.1.087a1.082,1.082,0,0,1,.177.08A1.342,1.342,0,0,1,22.4.244a.213.213,0,0,1,.049.306l-.057.093a.2.2,0,0,1-.17.1A.257.257,0,0,1,22.086.7a1.351,1.351,0,0,0-.194-.1A.7.7,0,0,0,21.62.556a.723.723,0,0,0-.293.055.6.6,0,0,0-.208.148.665.665,0,0,0-.129.22.813.813,0,0,0-.044.27.856.856,0,0,0,.046.279.7.7,0,0,0,.132.23.644.644,0,0,0,.211.158.673.673,0,0,0,.287.059.693.693,0,0,0,.16-.018.989.989,0,0,0,.143-.046.783.783,0,0,0,.113-.057c.034-.023.064-.042.088-.06a.244.244,0,0,1,.145-.054.2.2,0,0,1,.167.1l.062.084a.209.209,0,0,1-.032.306,1.606,1.606,0,0,1-.132.1,1.216,1.216,0,0,1-.191.1A1.444,1.444,0,0,1,21.9,2.5a1.4,1.4,0,0,1-.3.031A1.343,1.343,0,0,1,21.086,2.433Zm-9.168,0a1.219,1.219,0,0,1-.4-.27,1.19,1.19,0,0,1-.256-.407,1.391,1.391,0,0,1-.089-.5,1.317,1.317,0,0,1,.093-.493A1.2,1.2,0,0,1,11.926.1a1.319,1.319,0,0,1,.509-.1,1.355,1.355,0,0,1,.273.026,1.447,1.447,0,0,1,.223.061,1.071,1.071,0,0,1,.176.08,1.343,1.343,0,0,1,.123.076A.213.213,0,0,1,13.28.55l-.058.093a.2.2,0,0,1-.17.1A.26.26,0,0,1,12.917.7a1.3,1.3,0,0,0-.194-.1.693.693,0,0,0-.273-.049.719.719,0,0,0-.293.055.609.609,0,0,0-.209.148.648.648,0,0,0-.128.22.813.813,0,0,0-.045.27.856.856,0,0,0,.047.279.688.688,0,0,0,.132.23.65.65,0,0,0,.211.158.677.677,0,0,0,.288.059.685.685,0,0,0,.159-.018,1,1,0,0,0,.144-.046.772.772,0,0,0,.112-.057c.034-.022.064-.042.088-.06A.248.248,0,0,1,13.1,1.74a.2.2,0,0,1,.167.1l.063.085a.21.21,0,0,1-.032.306,1.634,1.634,0,0,1-.133.1,1.246,1.246,0,0,1-.19.1,1.483,1.483,0,0,1-.243.077,1.4,1.4,0,0,1-.3.031A1.34,1.34,0,0,1,11.918,2.433ZM9.553,2.5a1.523,1.523,0,0,1-.212-.063,1.251,1.251,0,0,1-.17-.082.975.975,0,0,1-.121-.078l-.005,0a.278.278,0,0,1-.077-.116.2.2,0,0,1,.047-.189l.068-.1a.208.208,0,0,1,.145-.1.256.256,0,0,1,.158.042l.005,0,.072.048a.608.608,0,0,0,.088.048.977.977,0,0,0,.12.041.507.507,0,0,0,.132.016A.305.305,0,0,0,10,1.919a.141.141,0,0,0,.057-.118A.142.142,0,0,0,10,1.688a.747.747,0,0,0-.176-.114c-.076-.038-.161-.076-.251-.113a1.592,1.592,0,0,1-.27-.147.794.794,0,0,1-.22-.221A.6.6,0,0,1,8.993.749.7.7,0,0,1,9.246.2.808.808,0,0,1,9.517.051,1.038,1.038,0,0,1,9.848,0a1.114,1.114,0,0,1,.207.019,1.294,1.294,0,0,1,.179.047,1.125,1.125,0,0,1,.147.061.921.921,0,0,1,.106.063.215.215,0,0,1,.067.3L10.5.593a.18.18,0,0,1-.162.117A.311.311,0,0,1,10.2.675l0,0a1.467,1.467,0,0,0-.156-.079A.49.49,0,0,0,9.842.559a.326.326,0,0,0-.2.053.133.133,0,0,0-.058.115.135.135,0,0,0,.048.107.714.714,0,0,0,.176.11c.079.037.164.074.251.109a1.559,1.559,0,0,1,.271.145.816.816,0,0,1,.221.223.618.618,0,0,1,.094.347.761.761,0,0,1-.059.3.713.713,0,0,1-.168.246.787.787,0,0,1-.265.163.992.992,0,0,1-.35.059A1.179,1.179,0,0,1,9.553,2.5Zm13.853-.012a.206.206,0,0,1-.221-.224V.262a.205.205,0,0,1,.221-.223h1.1a.207.207,0,0,1,.223.222V.35A.2.2,0,0,1,24.5.569h-.729V.995h.546a.2.2,0,0,1,.223.219V1.3a.207.207,0,0,1-.223.222h-.546v.437h.78a.206.206,0,0,1,.223.22v.089a.207.207,0,0,1-.223.222Zm-4.123,0a.251.251,0,0,1-.233-.133L18.24,1.142a.106.106,0,0,1-.01-.017V2.269a.206.206,0,0,1-.22.224h-.148a.206.206,0,0,1-.221-.224V.262A.224.224,0,0,1,17.7.1a.218.218,0,0,1,.162-.06h.173a.253.253,0,0,1,.237.133l.806,1.221.011.016V.262a.207.207,0,0,1,.223-.223h.144a.208.208,0,0,1,.224.223V2.269a.208.208,0,0,1-.224.224Zm-3.659,0a.205.205,0,0,1-.22-.224V.262a.205.205,0,0,1,.22-.223h1.1a.207.207,0,0,1,.223.222V.35a.2.2,0,0,1-.223.219h-.729V.995h.546a.2.2,0,0,1,.223.219V1.3a.207.207,0,0,1-.223.222h-.546v.437h.78a.206.206,0,0,1,.223.22v.089a.207.207,0,0,1-.223.222Zm-1.388,0a.206.206,0,0,1-.22-.224V.262a.206.206,0,0,1,.22-.223h.148a.206.206,0,0,1,.22.223V2.269a.206.206,0,0,1-.22.224Zm-8.412,0a.206.206,0,0,1-.22-.224V.262a.206.206,0,0,1,.22-.223h1.1a.207.207,0,0,1,.224.222V.35A.205.205,0,0,1,6.92.569H6.192V.995h.545a.206.206,0,0,1,.224.219V1.3a.208.208,0,0,1-.224.222H6.192v.437h.779a.206.206,0,0,1,.224.22v.089a.208.208,0,0,1-.224.222Zm-2.093,0a.206.206,0,0,1-.22-.224V.262A.206.206,0,0,1,3.73.039H4.773A.207.207,0,0,1,5,.261V.35a.2.2,0,0,1-.223.219H4.1v.473h.533a.205.205,0,0,1,.223.22V1.35a.206.206,0,0,1-.223.222H4.1v.7a.206.206,0,0,1-.22.224Zm-1.388,0a.206.206,0,0,1-.22-.224V.262a.206.206,0,0,1,.22-.223H2.49a.206.206,0,0,1,.22.223V2.269a.206.206,0,0,1-.22.224Zm-2.122,0A.206.206,0,0,1,0,2.269V.262A.206.206,0,0,1,.221.039H.368a.205.205,0,0,1,.22.224v1.7h.761a.206.206,0,0,1,.224.22v.089a.207.207,0,0,1-.224.222Z" transform="translate(-4397.454 14869.856)" fill="#424142"/><path d="M17.168,7.928a.157.157,0,0,1-.029.129,5.072,5.072,0,0,0-.674,1.181A.234.234,0,0,0,16.9,9.4a4.71,4.71,0,0,1,.572-1.012.158.158,0,0,1,.112-.064,5.949,5.949,0,0,0,3.8-1.742c1.293-1.6-.162-4.909-.225-5.049a.234.234,0,0,0-.366-.081,36.143,36.143,0,0,0-2.97,2.97,4.078,4.078,0,0,0-.655,3.506Zm1.005-3.2a36.576,36.576,0,0,1,2.579-2.615.093.093,0,0,1,.151.037c.337.916.985,3.063.118,4.135a4.8,4.8,0,0,1-2.662,1.433,2.257,2.257,0,0,1-.367.073c-.015-.019.195-.2.265-.271a5.884,5.884,0,0,0,1.5-2.28.242.242,0,0,0-.1-.294.234.234,0,0,0-.334.125,5.3,5.3,0,0,1-1.325,2.051c-.064.067-.247.254-.348.357a.05.05,0,0,1-.085-.028c-.019-.133-.035-.284-.044-.446a3.141,3.141,0,0,1,.658-2.276Zm.716,5.458a.158.158,0,0,1-.063.079c-.4.258-.684.451-.688.453a.234.234,0,1,0,.261.387s.277-.187.662-.436a.157.157,0,0,1,.148-.013,6.205,6.205,0,0,0,2.35.519A3.854,3.854,0,0,0,22.745,11a4.929,4.929,0,0,0,2.49-1.836.234.234,0,0,0-.1-.341c-.109-.047-2.685-1.138-4.069-.573a3.568,3.568,0,0,0-2.173,1.937ZM24.54,9.1a.093.093,0,0,1,.038.15,4.564,4.564,0,0,1-1.977,1.31,4.693,4.693,0,0,1-2.9-.206.041.041,0,0,1-.005-.075A5.793,5.793,0,0,1,21.664,9.8l.265-.035a.243.243,0,0,0,.216-.24.233.233,0,0,0-.265-.225l-.277.037a7.47,7.47,0,0,0-1.85.4.021.021,0,0,1-.025-.034,3.934,3.934,0,0,1,1.511-1.017c.907-.371,2.543.136,3.3.412ZM14.831,6.354a.127.127,0,0,1,.067.094c.069.453.148.772.152.79a.234.234,0,0,0,.226.177.231.231,0,0,0,.057-.007.233.233,0,0,0,.17-.283s-.079-.322-.146-.768a.127.127,0,0,1,.04-.113,5.384,5.384,0,0,0,1.776-3.118A4.932,4.932,0,0,0,16.5.105a.233.233,0,0,0-.33-.062c-.091.064-2.224,1.6-2.355,3.618-.123,1.878.634,2.5,1.012,2.693Zm-.546-2.662A5,5,0,0,1,16.192.624a.048.048,0,0,1,.074.016,4.576,4.576,0,0,1,.442,2.437,4.713,4.713,0,0,1-1.386,2.587.024.024,0,0,1-.041-.016A5.063,5.063,0,0,1,15.7,3.391a.242.242,0,0,0-.086-.3.234.234,0,0,0-.34.108,5.587,5.587,0,0,0-.456,2.519.024.024,0,0,1-.041.018,2.585,2.585,0,0,1-.49-2.045Zm2.4,21.814a.234.234,0,0,1-.122.307,11.736,11.736,0,0,1-4.683.967q-.252,0-.506-.011a11.867,11.867,0,1,1,.98-23.714.233.233,0,0,1,.224.243.231.231,0,0,1-.243.224A11.4,11.4,0,0,0,11.4,26.3a11.289,11.289,0,0,0,4.984-.919.234.234,0,0,1,.307.122Zm8.383-14.042a.554.554,0,0,0-.53-.1,1.433,1.433,0,0,0-.82.9,2.051,2.051,0,0,1-1.043,1.2,1.4,1.4,0,0,0-.1-.775.234.234,0,0,0-.293-.119l-2.676,1a.757.757,0,0,0-.418.48,1.7,1.7,0,0,0-.076.9l1.305,7.485a.059.059,0,0,1-.014.05c-.249.281-.514.551-.789.807a.058.058,0,0,1-.092-.019c-.229-.513-.662-1.469-1.234-2.677a2.756,2.756,0,0,0-2.494-1.46l-2.4.1a.713.713,0,0,1-.742-.683.714.714,0,0,1,.68-.742l.058,0c1.3-.035,1.778-.215,2.278-3.512a9.109,9.109,0,0,1,.349-.852c.119-.269.193-.438.222-.526.114-.341-.2-.569-.432-.735-.1-.073-.272-.2-.285-.258a7.918,7.918,0,0,0-.88-2.3c-.088-.168-.182-.35-.283-.552,0-.05,0-.083,0-.1a2.356,2.356,0,0,0-.819-1.844,4.3,4.3,0,0,0-3.491-.818,7.833,7.833,0,0,0-6.081,4.606A9.532,9.532,0,0,0,3.2,13.824c-.019.184-.038.37-.04.556,0,.155.006.439.006.439a7.393,7.393,0,0,0,1.884,4.6.139.139,0,0,1,.037.089,2.235,2.235,0,0,0,.7,1.481,2.412,2.412,0,0,0,1.42.587.176.176,0,0,1,.141.1,3.209,3.209,0,0,0,2.7,1.741,4.966,4.966,0,0,0,.622.04,2.87,2.87,0,0,0,3-2.158.234.234,0,0,0-.307-.253,2.5,2.5,0,0,1-2.709-.7,2.513,2.513,0,0,1-.211-.388,1.841,1.841,0,0,0-1.971-1.3.125.125,0,0,1-.106-.042c-.035-.042-.085-.095-.1-.115a5.079,5.079,0,0,1-1.126-1.755,2.6,2.6,0,0,1-.12-.4q-.01-.049-.022-.1a.255.255,0,0,0-.249-.194.233.233,0,0,0-.214.209.687.687,0,0,0,.022.224,1.078,1.078,0,0,1,.044.206,2.454,2.454,0,0,1-.351,1.56,2.386,2.386,0,0,1-.788.81.108.108,0,0,1-.135-.022,6.765,6.765,0,0,1-1.686-4.18l-.016-.366a.076.076,0,0,1,.075-.079,6.633,6.633,0,0,0,1.1-.114.04.04,0,0,1,.04.015c.027.037.086.114.118.152A2.55,2.55,0,0,0,6.792,15.5l.086,0a2.622,2.622,0,0,0,1.76-.8.234.234,0,0,0-.016-.332,3.632,3.632,0,0,0-1.478-.851.031.031,0,0,1-.007-.058q.39-.207.765-.455a.033.033,0,0,1,.038,0,2.829,2.829,0,0,0,1.638.613A1.991,1.991,0,0,0,10,13.578a2.593,2.593,0,0,0,1.584-1.241.233.233,0,0,0-.1-.317,3.486,3.486,0,0,0-1.854-.444.022.022,0,0,1-.017-.037,8.351,8.351,0,0,0,.647-.8.021.021,0,0,1,.022-.008,2.553,2.553,0,0,0,.634.089,1.555,1.555,0,0,0,.88-.25,1.848,1.848,0,0,0,.728-1.236.233.233,0,0,0-.208-.259,2.257,2.257,0,0,0-1.607.351,1.452,1.452,0,0,0-.1-.472,1.849,1.849,0,0,0-1.066-.96.234.234,0,0,0-.295.153,1.985,1.985,0,0,0,.588,2.349.021.021,0,0,1,0,.029,7.99,7.99,0,0,1-.7.85.023.023,0,0,1-.038-.021,1.969,1.969,0,0,0,.063-.508,2.594,2.594,0,0,0-.9-1.8.234.234,0,0,0-.33.034,2.784,2.784,0,0,0-.348,3.553.025.025,0,0,1-.007.036,8.529,8.529,0,0,1-1.111.61.034.034,0,0,1-.042-.05,2,2,0,0,0,.25-.583,2.594,2.594,0,0,0-.417-1.968.233.233,0,0,0-.328-.05,2.8,2.8,0,0,0-1.284,3.205.014.014,0,0,1-.012.019,6.135,6.135,0,0,1-.9.089.056.056,0,0,1-.057-.062A9.072,9.072,0,0,1,4.4,11.105,7.368,7.368,0,0,1,10.12,6.773a3.846,3.846,0,0,1,3.114.7A1.876,1.876,0,0,1,13.9,8.968c0,.208-.068,5.094-4.445,6.368a.79.79,0,0,0-.457.333c-.144.233-.262.7.561,1.243a.233.233,0,0,0,.337-.092.242.242,0,0,0-.091-.306c-.211-.14-.535-.4-.409-.6a.327.327,0,0,1,.191-.13,6.768,6.768,0,0,0,4.685-5.77.028.028,0,0,1,.054-.007,7.073,7.073,0,0,1,.749,2.011,1.022,1.022,0,0,0,.468.537c.058.042.141.1.2.153a.125.125,0,0,1,.031.141c-.041.1-.108.251-.173.4a6.105,6.105,0,0,0-.383.97c-.467,3.079-.81,3.088-1.828,3.115l-.061,0a1.181,1.181,0,0,0,.048,2.36h.049l2.4-.1a2.291,2.291,0,0,1,2.056,1.193c.734,1.551,1.238,2.684,1.375,2.994a.252.252,0,0,0,.2.16.436.436,0,0,0,.315-.154c.385-.374.782-.744,1.131-1.152a11.794,11.794,0,0,0,2.136-3.654,1.133,1.133,0,0,0-.113-1l-1.073-1.656-.011-.015a.189.189,0,0,1,.055-.278l.017-.011,1.88-1.311a2.941,2.941,0,0,0,1.438-2.226c0-.023.011-.048.017-.075a.9.9,0,0,0-.169-.95Zm-15.037,8.7a2.81,2.81,0,0,0,.258.467,2.761,2.761,0,0,0,2.685.982.065.065,0,0,1,.067.1,2.7,2.7,0,0,1-2.929,1.25,2.717,2.717,0,0,1-2.37-1.545.074.074,0,0,1,.015-.079,3.1,3.1,0,0,0,.565-1.038,2.813,2.813,0,0,0,.156-1.116.05.05,0,0,1,.046-.055c.974-.073,1.245.491,1.507,1.039ZM6.659,18.488A3.019,3.019,0,0,0,7,17.672a.034.034,0,0,1,.062-.009,5.556,5.556,0,0,0,.716.992c.018.02.072.1.086.124a1.535,1.535,0,0,1,.046,1.267A2.786,2.786,0,0,1,7.436,21a.412.412,0,0,1-.128.108.076.076,0,0,1-.043.007,1.987,1.987,0,0,1-1.14-.452,1.859,1.859,0,0,1-.559-1.038.12.12,0,0,1,.064-.123,2.743,2.743,0,0,0,1.028-1.011Zm1.453-3.936a2.015,2.015,0,0,1-1.3.486,2.061,2.061,0,0,1-1.43-.809.021.021,0,0,1,.006-.033c.038-.017.114-.051.18-.075.138-.051.3-.107.369-.13a1.575,1.575,0,0,1,.5-.1A2.631,2.631,0,0,1,8.112,14.552Zm2.846-2.263a.066.066,0,0,1,.026.1,1.966,1.966,0,0,1-1.086.731,2.02,2.02,0,0,1-1.523-.38.041.041,0,0,1,0-.066q.186-.141.362-.291a1.307,1.307,0,0,1,.469-.264,2.572,2.572,0,0,1,1.755.168ZM12,9.523c.012.01-.036.105-.062.163a1.157,1.157,0,0,1-.4.493,1.271,1.271,0,0,1-.952.141.027.027,0,0,1-.02-.038,1.427,1.427,0,0,1,1.258-.754.879.879,0,0,1,.175,0ZM9.615,8.588a.031.031,0,0,1,.046-.022,1.226,1.226,0,0,1,.514.563,1.163,1.163,0,0,1,.013.771c-.014.051-.049.144-.068.192a.024.024,0,0,1-.037.01,1.46,1.46,0,0,1-.467-1.514ZM8.1,9.63a.05.05,0,0,1,.078-.005,1.979,1.979,0,0,1,.516,1.228A2.032,2.032,0,0,1,8,12.288a.066.066,0,0,1-.1-.011,2.122,2.122,0,0,1-.27-.62A2.433,2.433,0,0,1,8.1,9.63ZM6,11.163a2.011,2.011,0,0,1,.216,1.374,1.836,1.836,0,0,1-.729,1.01,1.739,1.739,0,0,1-.216.133.466.466,0,0,1-.164.066c-.024-.006-.064-.176-.073-.216A2.32,2.32,0,0,1,6,11.163ZM24.786,12.3c-.007.031-.014.059-.02.086a2.476,2.476,0,0,1-1.244,1.938l-1.877,1.309a.656.656,0,0,0-.189.953l1.069,1.649a.664.664,0,0,1,.066.585A11.31,11.31,0,0,1,20.9,21.883a.06.06,0,0,1-.105-.026L19.58,14.864a1.234,1.234,0,0,1,.052-.651.341.341,0,0,1,.179-.22,2.082,2.082,0,0,1,.288-.109l2.044-.762a.064.064,0,0,1,.086.054.719.719,0,0,1-.047.333.749.749,0,0,1-.323.348l-.3.138a.232.232,0,0,0-.047.029l-.686.333a.244.244,0,0,0-.131.3.234.234,0,0,0,.322.131l.784-.38a1.905,1.905,0,0,0,.287-.136l.423-.192A2.727,2.727,0,0,0,24.169,12.4a1,1,0,0,1,.507-.587c.062-.018.083,0,.1.011.1.083.063.275.013.482Z" transform="translate(-4426.004 14849)" fill="url(#azoe)"/></g></svg>
