<svg xmlns="http://www.w3.org/2000/svg" xmlns:xlink="http://www.w3.org/1999/xlink" width="50.657" height="40" viewBox="0 0 50.657 40"><defs><clipPath id="a"><rect width="50.657" height="40" fill="none"/></clipPath><clipPath id="c"><rect width="20.445" height="21.609" fill="none"/></clipPath><clipPath id="d"><rect width="7.775" height="7.031" fill="none"/></clipPath></defs><g transform="translate(0 -17)"><g transform="translate(0 17)"><g clip-path="url(#a)"><rect width="5.696" height="25.097" transform="translate(44.157 0.804)" fill="#8a433c"/><path d="M136.483,1.607h4.089V25.1h-4.089Zm-1.607,25.1h7.3V0h-7.3Z" transform="translate(-91.522)" fill="#8a433c"/><g clip-path="url(#a)"><g transform="translate(20.497 14.373)" opacity="0.1"><g clip-path="url(#c)"><rect width="20.446" height="21.609" transform="translate(0)" fill="#102621"/></g></g><g transform="translate(0.804 5.125)" opacity="0.1"><g clip-path="url(#d)"><path d="M10.275,16.734v6.242L5.28,21.525,2.5,15.946l6.73.209Z" transform="translate(-2.5 -15.946)" fill="#102621"/></g></g><path d="M50.657,40H6.987V12.875A7.8,7.8,0,0,1,0,5.126v-.8H6.987V0H44.961V25.1h5.7ZM8.594,38.393H49.05V26.7h-5.7V1.607H8.594V5.929H1.659a6.192,6.192,0,0,0,6.131,5.38h.8Z" fill="#102621"/><rect width="0.643" height="1.286" transform="translate(16.962 37.216)" fill="#102621"/><path d="M53.412,48.333h-.643V45.915h.643Zm0-6.047h-.643V39.868h.643Zm0-6.046h-.643V33.822h.643Zm0-6.047h-.643V27.775h.643Zm0-6.046h-.643V21.729h.643Z" transform="translate(-35.807 -14.745)" fill="#102621"/><rect width="0.643" height="1.286" transform="translate(16.962 2.071)" fill="#102621"/><rect width="1.286" height="0.643" transform="translate(18.92 10.837)" fill="#102621"/><path d="M88.576,34.359H86.165v-.643h2.411Zm-6.027,0H80.138v-.643h2.411Zm-6.027,0H74.111v-.643h2.411Z" transform="translate(-50.289 -22.879)" fill="#102621"/><rect width="1.286" height="0.643" transform="translate(41.903 10.837)" fill="#102621"/></g></g></g></g></svg>