<svg xmlns="http://www.w3.org/2000/svg" xmlns:xlink="http://www.w3.org/1999/xlink" width="48.181" height="40" viewBox="0 0 48.181 40"><defs><clipPath id="a"><rect width="48.181" height="40" fill="none"/></clipPath><clipPath id="c"><rect width="14.572" height="14.568" fill="none"/></clipPath></defs><g transform="translate(0 0)" clip-path="url(#a)"><g clip-path="url(#a)"><path d="M101.848,47.257V45.8a17.052,17.052,0,0,0,0-34.1V10.24a18.508,18.508,0,0,1,0,37.017" transform="translate(-72.175 -7.257)" fill="#102621"/><path d="M56.83,92.275A18.529,18.529,0,0,1,38.322,73.767h1.457A17.071,17.071,0,0,0,56.83,90.818Z" transform="translate(-27.157 -52.275)" fill="#102621"/><rect width="12.445" height="1.457" transform="translate(17.228 2.983)" fill="#102621"/><rect width="12.431" height="1.457" transform="translate(7.519 20.763)" fill="#102621"/><rect width="1.457" height="2.983" transform="translate(28.945 0.728)" fill="#102621"/><rect width="4.256" height="1.457" transform="translate(27.545)" fill="#102621"/><rect width="16.862" height="1.457" transform="translate(0 17.207)" fill="#102621"/><rect width="17.834" height="1.457" transform="translate(5.514 13.651)" fill="#102621"/><rect width="13.773" height="1.457" transform="translate(1.704 10.095)" fill="#102621"/><rect width="11.853" height="1.457" transform="translate(7.599 6.539)" fill="#102621"/><path d="M97.925,67.106a2.738,2.738,0,1,1-2.738-2.738,2.738,2.738,0,0,1,2.738,2.738" transform="translate(-65.514 -45.615)" fill="#8a433c"/><path d="M69.085,51.433c-.219,0-.434,0-.646-.01l.073-2.226c.293.01.588.011.9.006l.036,2.227-.362,0m-7.547-1.654c-.308-.151-.613-.315-.909-.486l1.118-1.926c.251.146.511.285.772.413Zm14.8-.343-1.1-1.935c.257-.146.51-.3.752-.46L77.208,48.9c-.282.186-.576.366-.874.535M55.513,44.291C55.334,44,55.162,43.7,55,43.4l1.97-1.038c.136.258.283.515.436.764Zm26.6-.568L80.188,42.6c.148-.253.289-.515.42-.776l1.993.994c-.152.3-.316.609-.489.9M82,35.879c0-.294-.01-.59-.03-.881l2.222-.149c.023.339.034.685.035,1.027ZM80.5,29.73c-.135-.259-.28-.517-.431-.767l1.9-1.155c.177.292.346.593.5.895ZM75.792,24.6c-.246-.156-.5-.307-.759-.447L76.1,22.2c.3.164.6.339.886.521Zm-14.236-.054-1.142-1.912c.29-.174.593-.341.9-.5l1.012,1.984c-.263.134-.522.277-.769.425m7.586-2.007q-.438-.015-.883,0l-.066-2.226c.344-.01.686-.009,1.026,0Z" transform="translate(-38.978 -14.388)" fill="#102621"/><g transform="translate(29.673 21.492)" opacity="0.1"><g clip-path="url(#c)"><path d="M116.311,73.766c.826,5.878-3.169,11.911-8.739,13.82a12.08,12.08,0,0,1-5.725.643,18.467,18.467,0,0,0,5.344-1.56,16.377,16.377,0,0,0,9.119-12.9" transform="translate(-101.847 -73.766)" fill="#102621"/></g></g><path d="M96.142,45.625h3.324S98.223,35.279,97.8,34.056c-.419,1.223-1.662,11.569-1.662,11.569" transform="translate(-68.131 -24.134)" fill="#8a433c"/><rect width="10.255" height="1.457" transform="translate(4.176 2.983)" fill="#102621"/></g></g></svg>