<svg version="1.1" id="lp" xmlns="http://www.w3.org/2000/svg" xmlns:xlink="http://www.w3.org/1999/xlink" width="165" height="25" viewBox="0 0 103.1 16.3" style="enable-background:new 0 0 103.1 16.3;" xml:space="preserve">
<style type="text/css">
	.lp0{fill:#10312B;}
	.lp1{fill:#002941;}
	.lp2{fill:#59A646;}
</style>
<g transform="translate(0 0)">
	<path class="lp0" d="M13.4,5.7l-1.4,3.3h2.7L13.4,5.7L13.4,5.7z"/>
	<path class="lp1" d="M0,0v16.3h37.5V0H0z M8.7,11.7H4.4V4.5h1v6.3h3.3V11.7z M15.9,11.7l-0.7-1.8h-3.5L11,11.7H9.8L13,4.5h0.9
		l3.1,7.3H15.9z M25.3,11.7h-1.3l-4-6h0v6h-1V4.5h1.3l4,6h0v-6h1L25.3,11.7z M33.1,11.7h-4.9V4.5h4.7v0.9h-3.7v2.2h3.4v0.9h-3.4v2.3
		h3.9L33.1,11.7z"/>
	<path class="lp2" d="M51.1,5.7l-1.4,3.3h2.7L51.1,5.7L51.1,5.7z"/>
	<path class="lp2" d="M37.5,0v16.3h65.6V0H37.5z M46.8,7.2c-0.1,0.2-0.2,0.5-0.4,0.7c-0.2,0.2-0.4,0.4-0.7,0.5
		c-0.4,0.1-0.8,0.2-1.1,0.2H43v3.2h-1V4.5h2.6c0.4,0,0.8,0.1,1.1,0.2c0.3,0.1,0.5,0.3,0.7,0.5c0.2,0.2,0.3,0.4,0.4,0.7
		C47,6.3,47,6.7,46.8,7.2L46.8,7.2z M53.5,11.7l-0.7-1.8h-3.5l-0.7,1.8h-1.1l3.2-7.3h0.9l3.1,7.3H53.5z M60.6,11.7l-1.8-3.2h-1.1
		v3.2h-1V4.5h2.6c0.4,0,0.8,0.1,1.1,0.2c0.3,0.1,0.5,0.3,0.7,0.5c0.2,0.2,0.3,0.4,0.4,0.7c0.1,0.2,0.1,0.5,0.1,0.7
		c0,0.2,0,0.5-0.1,0.7c-0.1,0.2-0.2,0.4-0.4,0.6c-0.2,0.2-0.4,0.3-0.6,0.4c-0.2,0.1-0.5,0.2-0.7,0.2l2.1,3.3L60.6,11.7z M68.6,5.4
		h-2.3v6.3h-1V5.4h-2.3V4.5h5.7L68.6,5.4z M77,11.7h-1.3l-4-6h0v6h-1V4.5h1.3l4,6h0v-6h1L77,11.7z M84.7,11.7h-4.9V4.5h4.7v0.9h-3.7
		v2.2h3.4v0.9h-3.4v2.3h3.9L84.7,11.7z M91.1,11.7l-1.8-3.2h-1.1v3.2h-1V4.5h2.6c0.4,0,0.8,0.1,1.1,0.2c0.3,0.1,0.5,0.3,0.7,0.5
		c0.2,0.2,0.3,0.4,0.4,0.7C92,6,92,6.3,92,6.5c0,0.2,0,0.5-0.1,0.7c-0.1,0.2-0.2,0.4-0.4,0.6c-0.2,0.2-0.4,0.3-0.6,0.4
		c-0.2,0.1-0.5,0.2-0.7,0.2l2.1,3.3L91.1,11.7z M98.5,10.6c-0.1,0.3-0.3,0.5-0.5,0.7c-0.2,0.2-0.5,0.3-0.8,0.4
		c-0.3,0.1-0.7,0.2-1,0.2c-0.5,0-0.9-0.1-1.3-0.2c-0.4-0.2-0.7-0.4-1-0.8l0.8-0.7c0.2,0.3,0.4,0.5,0.7,0.6c0.3,0.1,0.6,0.2,0.9,0.2
		c0.2,0,0.3,0,0.5-0.1c0.2,0,0.3-0.1,0.5-0.2c0.1-0.1,0.3-0.2,0.3-0.4c0.1-0.2,0.1-0.3,0.1-0.5c0-0.2-0.1-0.5-0.3-0.6
		c-0.2-0.2-0.4-0.3-0.7-0.4c-0.3-0.1-0.6-0.2-0.9-0.3c-0.3-0.1-0.6-0.2-0.9-0.4c-0.3-0.2-0.5-0.4-0.7-0.7C94.1,7.1,94,6.7,94,6.3
		c0-0.5,0.2-1,0.6-1.3c0.2-0.2,0.5-0.4,0.8-0.5c0.4-0.1,0.7-0.2,1.1-0.2c0.4,0,0.8,0.1,1.1,0.2c0.4,0.1,0.7,0.4,1,0.7l-0.8,0.7
		c-0.1-0.2-0.3-0.4-0.5-0.5c-0.2-0.1-0.5-0.2-0.8-0.2c-0.2,0-0.5,0-0.7,0.1c-0.2,0.1-0.3,0.2-0.4,0.3c-0.1,0.1-0.2,0.2-0.2,0.4
		c0,0.1-0.1,0.2-0.1,0.4c0,0.3,0.1,0.5,0.3,0.7c0.2,0.2,0.4,0.3,0.7,0.4c0.3,0.1,0.6,0.2,0.9,0.3c0.3,0.1,0.6,0.2,0.9,0.3
		c0.3,0.1,0.5,0.3,0.7,0.6c0.2,0.3,0.3,0.7,0.3,1C98.7,10,98.6,10.3,98.5,10.6L98.5,10.6z"/>
	<path class="lp2" d="M45.4,5.5c-0.2-0.1-0.3-0.1-0.5-0.2c-0.2,0-0.4,0-0.6,0H43v2.3h1.3c0.2,0,0.4,0,0.6,0c0.2,0,0.3-0.1,0.5-0.2
		c0.1-0.1,0.3-0.2,0.4-0.4c0.2-0.4,0.2-0.8,0-1.2C45.7,5.8,45.5,5.6,45.4,5.5z"/>
	<path class="lp2" d="M90.8,7.1c0.2-0.4,0.2-0.8,0-1.2c-0.1-0.1-0.2-0.3-0.4-0.4c-0.2-0.1-0.3-0.1-0.5-0.2c-0.2,0-0.4,0-0.6,0h-1.3
		v2.3h1.3c0.2,0,0.4,0,0.6,0c0.2,0,0.3-0.1,0.5-0.2C90.6,7.4,90.8,7.2,90.8,7.1z"/>
	<path class="lp2" d="M60.3,7.1c0.2-0.4,0.2-0.8,0-1.2c-0.1-0.1-0.2-0.3-0.4-0.4c-0.2-0.1-0.3-0.1-0.5-0.2c-0.2,0-0.4,0-0.6,0h-1.3
		v2.3h1.3c0.2,0,0.4,0,0.6,0c0.2,0,0.3-0.1,0.5-0.2C60.1,7.4,60.3,7.2,60.3,7.1z"/>
</g>
</svg>
