<svg xmlns="http://www.w3.org/2000/svg" width="53.285" height="23.309" viewBox="0 0 53.285 23.309"><g transform="translate(0 0)"><rect width="53.285" height="23.309" transform="translate(0 0)" fill="#10312b"/><g transform="translate(5.616 3.299)"><g transform="translate(0.026 1.256)"><path d="M114.3,98.6h2.214v8.043h5.017v2.009H114.3Z" transform="translate(-114.3 -98.463)" fill="#e9f0ee"/><path d="M319.2,98.6h4.667a3.665,3.665,0,0,1,2.633.889,2.318,2.318,0,0,1,.692,1.735,2.342,2.342,0,0,1-1.325,2.171,2.465,2.465,0,0,1,1.88,2.5c0,1.838-1.5,2.761-3.761,2.761H319.2Zm4.188,4.069c.974,0,1.6-.316,1.6-1.094,0-.658-.521-1.034-1.453-1.034h-2.188v2.128Zm.59,4.051c.974,0,1.564-.342,1.564-1.12,0-.675-.5-1.094-1.641-1.094h-2.556v2.214Z" transform="translate(-301.686 -98.463)" fill="#e9f0ee"/><path d="M518.7,105.445l3.351-2.744c1.248-1.034,1.735-1.581,1.735-2.41a1.236,1.236,0,0,0-1.351-1.308c-.778,0-1.308.427-2.051,1.35l-1.556-1.248A4.175,4.175,0,0,1,522.572,97c2.086,0,3.462,1.222,3.462,3.128,0,1.684-.863,2.513-2.641,3.9l-1.633,1.265h4.385v1.915H518.7Z" transform="translate(-484.134 -97)" fill="#e9f0ee"/></g><g transform="translate(11.872)"><rect width="0.701" height="13.026" fill="#fff"/><rect width="0.701" height="13.026" transform="translate(17.608)" fill="#fff"/></g><g transform="translate(0 13.881)"><path d="M114,245.3h1.12a.943.943,0,0,1,1.051.957.982.982,0,0,1-1.1.966h-.462v.821h-.6V245.3Zm1.086,1.376a.427.427,0,0,0,.479-.419c0-.274-.188-.419-.487-.419h-.462v.838Z" transform="translate(-114 -245.249)" fill="#fff"/><path d="M174.471,245h.556l1.171,2.761h-.633l-.248-.615h-1.154l-.248.615H173.3Zm.633,1.615-.368-.889-.368.889Z" transform="translate(-168.231 -244.974)" fill="#fff"/><path d="M246.809,245.3h1.248a1.079,1.079,0,0,1,.795.274.859.859,0,0,1,.231.633.844.844,0,0,1-.59.846l.667.974h-.7l-.6-.872H247.4v.872h-.6V245.3Zm1.214,1.325c.291,0,.462-.154.462-.393,0-.256-.179-.393-.47-.393h-.6v.786Z" transform="translate(-235.449 -245.249)" fill="#fff"/><path d="M313.229,245.756H312.4V245.2h2.265v.556h-.829v2.18h-.6v-2.18Z" transform="translate(-295.442 -245.157)" fill="#fff"/><path d="M378.9,245.3h.556l1.282,1.684V245.3h.6v2.735h-.513l-1.325-1.744v1.744h-.6Z" transform="translate(-356.258 -245.249)" fill="#fff"/><path d="M449.8,245.3h2.068v.538H450.4v.556h1.291v.538H450.4v.573h1.487v.538H449.8Z" transform="translate(-421.098 -245.249)" fill="#fff"/><path d="M515.008,245.3h1.248a1.079,1.079,0,0,1,.795.274.859.859,0,0,1,.231.633.844.844,0,0,1-.59.846l.667.974h-.7l-.6-.872H515.6v.872H515V245.3Zm1.214,1.325c.291,0,.462-.154.462-.393,0-.256-.179-.393-.47-.393h-.6v.786Z" transform="translate(-480.725 -245.249)" fill="#fff"/><path d="M580.6,247.085l.359-.427a1.252,1.252,0,0,0,.82.333c.248,0,.393-.094.393-.265,0-.154-.094-.231-.547-.35-.556-.137-.906-.291-.906-.846a.861.861,0,0,1,.957-.829,1.577,1.577,0,0,1,1.017.35l-.316.453a1.256,1.256,0,0,0-.709-.274c-.231,0-.35.1-.35.248,0,.179.12.239.59.359.556.145.872.342.872.829,0,.547-.41.846-1.009.846A1.727,1.727,0,0,1,580.6,247.085Z" transform="translate(-540.718 -244.7)" fill="#fff"/></g></g></g></svg>