<svg xmlns="http://www.w3.org/2000/svg" xmlns:xlink="http://www.w3.org/1999/xlink" width="72.381" height="10.447" viewBox="0 0 72.381 10.447"><defs><clipPath id="a"><rect width="72.381" height="10.448" fill="#10312b"/></clipPath></defs><g transform="translate(0 0)" clip-path="url(#a)"><path d="M61.472.1h1.808l7.648,8.344V.1h1.453V10.346H70.675l-7.75-8.462v8.462H61.472ZM53.559,9.1c3.1,0,4.7-1.884,4.7-3.871s-1.6-3.873-4.7-3.873-4.71,1.886-4.71,3.873S50.45,9.1,53.559,9.1Zm0-9.1c4.136,0,6.223,2.745,6.223,5.224s-2.086,5.223-6.223,5.223S47.335,7.7,47.335,5.224,49.423,0,53.559,0ZM36.594,5.224c0,1.987,1.608,3.871,4.75,3.871a10.145,10.145,0,0,0,4.77-1.363l.556,1.29a11.362,11.362,0,0,1-5.322,1.424c-4.172,0-6.276-2.745-6.276-5.223S37.179,0,41.347,0a11.346,11.346,0,0,1,5.322,1.424l-.556,1.29a10.161,10.161,0,0,0-4.77-1.363C38.2,1.352,36.6,3.237,36.6,5.224Zm-10.411,1.3h5.365l-2.68-4.948ZM28.129.1h1.556l5.642,10.243h-1.7L32.272,7.857h-6.8l-1.352,2.489H22.49ZM12.57.1h9.417V1.434H14.045V4.519h7.422V5.85H14.045V9.006h7.933l-.731,1.332H12.56Zm-5.3,8.911c1.53,0,2.14-.584,2.14-1.577s-.615-1.578-2.14-1.578H1.484V9.014ZM9.039,2.98c0-.973-.615-1.546-2.1-1.546H1.484V4.519H6.931c1.494,0,2.1-.574,2.1-1.546ZM6.981,10.338H0V.095H6.654c2.723,0,3.88,1.167,3.88,2.642A2.354,2.354,0,0,1,8.68,5.021a2.43,2.43,0,0,1,2.253,2.447c0,1.578-1.26,2.869-3.941,2.869" transform="translate(0 0)" fill="#10312b"/></g></svg>