<svg xmlns="http://www.w3.org/2000/svg" width="139.062" height="138.871" viewBox="0 0 139.062 138.871"><g transform="translate(4547 -11731.564)"><path d="M8.7,64.422,0,65.565.313,63.44c2-.2,5.216-.59,6.752-.558V62.87c-1.5-.5-4.425-1.815-6.278-2.659l.286-1.935c1.917-.25,5.461-.686,6.716-.731l0-.023c-1.485-.462-4.449-1.736-6.241-2.5l.3-2.042,7.982,3.758-.323,2.2c-1.918.262-5.237.646-6.476.743v.011c1.387.459,4.023,1.661,5.991,2.545Z" transform="translate(-4547 11731.564)" fill="#fff"/><path d="M9.226,51.67l1.6,1.292-.657,2.007L3.195,49.115l.821-2.51,9.139-.769-.691,2.109-2.07.156Zm-.57-3.545c-2.082.152-3.147.207-3.815.2l0,.012c.537.365,1.615,1.2,2.991,2.316Z" transform="translate(-4547 11731.564)" fill="#fff"/><path d="M7.9,41.315,6.623,44l-1.475-.7,3.424-7.22,1.474.7L8.777,39.461l6.159,2.919-.879,1.855Z" transform="translate(-4547 11731.564)" fill="#fff"/><path d="M18.931,30.65c1.028,1.144,1.528,2.887.062,5.1a4.181,4.181,0,0,1-6.136,1.3,4.3,4.3,0,0,1-1.147-6.262c1.433-2.16,3.344-2.435,4.653-1.867l-1.147,1.729a1.951,1.951,0,0,0-2.2,1.034c-.876,1.321-.316,2.67.964,3.52,1.3.863,2.822.978,3.744-.411a1.919,1.919,0,0,0,.071-2.431Z" transform="translate(-4547 11731.564)" fill="#fff"/><path d="M15.68,25.557l1.386-1.512L19.4,26.186l2.627-2.865-2.334-2.139,1.387-1.512L27.3,25.377l-1.386,1.512-2.678-2.457L20.61,27.295l2.678,2.457L21.9,31.264Z" transform="translate(-4547 11731.564)" fill="#fff"/><path d="M26.263,15.136l5.634-4.1.96,1.323L28.884,15.25,30.013,16.8l3.7-2.689.967,1.331-3.7,2.689,1.912,2.632-1.661,1.208Z" transform="translate(-4547 11731.564)" fill="#fff"/><path d="M35.694,8.852l2.214,4.231c.834,1.6,1.886,1.559,2.8,1.081.978-.512,1.415-1.283.591-2.856l-2.214-4.23L40.9,6.126l2.242,4.284c1.191,2.275.483,4.028-1.74,5.191-2.158,1.129-4.046.857-5.265-1.471L33.875,9.8Z" transform="translate(-4547 11731.564)" fill="#fff"/><path d="M43.706,4.994l1.935-.682L47.9,10.726l4.456-1.57.286,1.643-6.131,2.158Z" transform="translate(-4547 11731.564)" fill="#fff"/><path d="M52.026,2.262l2.005-.432,1.432,6.647,4.618-.994.077,1.664L53.8,10.515Z" transform="translate(-4547 11731.564)" fill="#fff"/><path d="M67.027,8.57,63.409.193,65.677.146l1.571,3.989c.583,1.513.84,2.326.995,2.861h.024c.122-.494.234-.858.982-3.057L70.609.046,72.806,0,69.475,8.52Z" transform="translate(-4547 11731.564)" fill="#fff"/><rect width="8.442" height="2.051" transform="translate(-4473.235 11740.235) rotate(-85.094)" fill="#fff"/><path d="M79.46.685l3.742.752C85.99,2,87.156,4.117,86.717,6.3A4.229,4.229,0,0,1,81.5,9.715L77.8,8.969Zm.66,7.136,1.424.286c1.623.326,2.679-.417,3.034-2.182a2.3,2.3,0,0,0-1.969-3l-1.447-.29Z" transform="translate(-4547 11731.564)" fill="#fff"/><path d="M94.761,10,90.328,8.392l-.654,1.8,4.93,1.786-.786,1.464-6.633-2.4L90.062,3.1l6.6,2.391L96.1,7.037,91.431,5.346l-.544,1.5,4.434,1.6Z" transform="translate(-4547 11731.564)" fill="#fff"/><path d="M104.822,14.457a4.292,4.292,0,0,1-6.192,1.666,4.224,4.224,0,0,1-1.816-6.043,4.344,4.344,0,0,1,6.132-1.629,4.248,4.248,0,0,1,1.876,6.006m-6.1-3.36c-.767,1.4-.668,2.89.783,3.685,1.483.812,2.753-.132,3.416-1.341.715-1.3.7-2.8-.791-3.62-1.441-.79-2.722.025-3.408,1.276" transform="translate(-4547 11731.564)" fill="#fff"/><path d="M130.357,74.449l8.705-1.143-.313,2.125c-1.995.2-5.216.59-6.752.559V76c1.5.5,4.425,1.814,6.278,2.658l-.286,1.935c-1.917.25-5.461.686-6.716.731l0,.023c1.485.463,4.449,1.737,6.241,2.5l-.3,2.043-7.982-3.759.323-2.2c1.918-.263,5.237-.646,6.476-.744v-.011c-1.387-.459-4.023-1.661-5.991-2.545Z" transform="translate(-4547 11731.564)" fill="#fff"/><path d="M129.835,87.2l-1.6-1.293L128.9,83.9l6.971,5.854-.821,2.508-9.139.771.69-2.109,2.071-.157Zm.57,3.545c2.082-.152,3.147-.207,3.815-.2l0-.012c-.537-.365-1.615-1.2-2.991-2.316Z" transform="translate(-4547 11731.564)" fill="#fff"/><path d="M131.164,97.555l1.275-2.689,1.475.7-3.425,7.222-1.474-.7,1.27-2.679-6.16-2.92.88-1.854Z" transform="translate(-4547 11731.564)" fill="#fff"/><path d="M120.132,108.219c-1.028-1.143-1.528-2.885-.062-5.1a4.18,4.18,0,0,1,6.136-1.3,4.3,4.3,0,0,1,1.147,6.263c-1.434,2.16-3.344,2.434-4.654,1.867l1.148-1.73a1.953,1.953,0,0,0,2.2-1.033c.876-1.321.317-2.67-.963-3.52-1.3-.863-2.823-.978-3.744.41a1.921,1.921,0,0,0-.072,2.432Z" transform="translate(-4547 11731.564)" fill="#fff"/><path d="M123.383,113.314,122,114.826l-2.334-2.141-2.626,2.863,2.333,2.141-1.386,1.512-6.222-5.707,1.386-1.512,2.678,2.457,2.627-2.865-2.678-2.455,1.385-1.512Z" transform="translate(-4547 11731.564)" fill="#fff"/><path d="M112.8,123.734l-5.633,4.094-.961-1.321,3.974-2.886-1.13-1.555-3.7,2.689-.966-1.33,3.7-2.689-1.913-2.633,1.661-1.207Z" transform="translate(-4547 11731.564)" fill="#fff"/><path d="M103.368,130.019l-2.214-4.232c-.835-1.6-1.886-1.559-2.8-1.082-.979.513-1.415,1.283-.591,2.857l2.213,4.23-1.817.952-2.243-4.284c-1.191-2.275-.482-4.027,1.741-5.191,2.158-1.129,4.046-.857,5.264,1.471l2.265,4.326Z" transform="translate(-4547 11731.564)" fill="#fff"/><path d="M95.356,133.877l-1.935.682-2.258-6.414-4.457,1.57-.285-1.643,6.13-2.158Z" transform="translate(-4547 11731.564)" fill="#fff"/><path d="M87.036,136.609l-2,.432L83.6,130.394l-4.618.994-.077-1.664,6.355-1.369Z" transform="translate(-4547 11731.564)" fill="#fff"/><path d="M72.035,130.3l3.618,8.377-2.268.047-1.571-3.99c-.583-1.512-.84-2.325-1-2.86h-.024c-.121.494-.234.858-.982,3.057l-1.36,3.894-2.2.045,3.33-8.519Z" transform="translate(-4547 11731.564)" fill="#fff"/><rect width="8.442" height="2.051" transform="translate(-4484.469 11870.001) rotate(-85.088)" fill="#fff"/><path d="M59.6,138.186l-3.742-.752c-2.788-.561-3.954-2.68-3.515-4.869a4.23,4.23,0,0,1,5.215-3.409l3.706.745Zm-.66-7.137-1.424-.285c-1.623-.326-2.679.416-3.033,2.181a2.3,2.3,0,0,0,1.968,3l1.447.291Z" transform="translate(-4547 11731.564)" fill="#fff"/><path d="M44.3,128.875l4.433,1.6.654-1.8-4.93-1.787.786-1.463,6.633,2.4L49,135.771l-6.6-2.392.559-1.543,4.671,1.691.543-1.5-4.434-1.6Z" transform="translate(-4547 11731.564)" fill="#fff"/><path d="M34.241,124.414a4.292,4.292,0,0,1,6.192-1.666,4.224,4.224,0,0,1,1.816,6.043,4.345,4.345,0,0,1-6.132,1.63,4.249,4.249,0,0,1-1.876-6.007m6.1,3.361c.767-1.4.668-2.891-.783-3.686-1.483-.812-2.753.133-3.416,1.342-.715,1.3-.7,2.8.791,3.619,1.441.791,2.722-.025,3.408-1.275" transform="translate(-4547 11731.564)" fill="#fff"/></g></svg>