<svg xmlns="http://www.w3.org/2000/svg" xmlns:xlink="http://www.w3.org/1999/xlink" width="64.382" height="40" viewBox="0 0 64.382 40"><defs><clipPath id="a"><rect width="64.382" height="40" fill="none"/></clipPath><clipPath id="c"><rect width="16.385" height="16.781" fill="none"/></clipPath><clipPath id="d"><rect width="11.782" height="16.781" fill="none"/></clipPath></defs><g transform="translate(5.115 -144.859)"><g transform="translate(-5.115 144.86)"><g transform="translate(0 0)" clip-path="url(#a)"><rect width="58.246" height="1.595" transform="translate(3.068 19.458)" fill="#102621"/><path d="M53.873,34.189H22.682v-14.9h1.827V32.594H53.873Z" transform="translate(-14.393 -13.136)" fill="#102621"/><rect width="32.743" height="1.595" transform="translate(3.068 28.928)" fill="#102621"/><rect width="17.273" height="1.595" transform="translate(44.041 28.928)" fill="#102621"/><path d="M48.891,79.481H22.682V71.892h1.827v5.994H48.891Z" transform="translate(-14.393 -48.959)" fill="#102621"/><path d="M132.007,79.481H119.638v-1.6H130.18V71.892h1.827Z" transform="translate(-75.915 -48.959)" fill="#102621"/><path d="M22.683,101.576v7.589H48.891v-1.6H24.51v-5.994Z" transform="translate(-14.393 -69.173)" fill="#102621"/><path d="M132.113,101.576v5.994h-9.429v1.6h11.256v-7.589Z" transform="translate(-77.848 -69.173)" fill="#102621"/><rect width="31.124" height="1.595" transform="translate(3.068 2.678)" fill="#102621"/><g transform="translate(0 0)"><g clip-path="url(#a)"><path d="M0,121.146c2.682-.332,5.365-.567,8.048-.805,5.069.009,18.888.009,24.143.008H56.334c2.682.242,5.365.478,8.047.8-2.682.32-5.365.555-8.047.8H32.191c-5.3,0-19.012,0-24.143.008-2.682-.238-5.365-.473-8.048-.805" transform="translate(0 -81.952)" fill="#102621"/><g transform="translate(13.991 3.475)" opacity="0.1"><g clip-path="url(#c)"><path d="M44.5,27.675H38.282L48.45,10.894h6.218Z" transform="translate(-38.282 -10.894)" fill="#102621"/></g></g><g transform="translate(11.053 3.475)" opacity="0.1"><g clip-path="url(#d)"><path d="M31.857,27.675H30.243L40.411,10.894h1.614Z" transform="translate(-30.243 -10.894)" fill="#102621"/></g></g><path d="M85.583,0V39.992h6.9V21.087h2.607V39.992h6.9V0ZM97.455,17.311H90.117V3.916h7.339Z" transform="translate(-54.306 0)" fill="#8a433c"/><rect width="23.19" height="0.957" transform="translate(38.124 9.578)" fill="#102621"/><path d="M105.485,28.267,102.2,25.4l3.29-2.871.775.677L103.746,25.4l2.514,2.195Z" transform="translate(-64.847 -15.339)" fill="#102621"/></g></g></g></g></g></svg>