<svg xmlns="http://www.w3.org/2000/svg" width="139.062" height="138.811" viewBox="0 0 139.062 138.811"><g transform="translate(4585.062 -13056.095)"><path d="M502.989,448.519h0A53.782,53.782,0,0,1,556.77,502.3h0a53.781,53.781,0,0,1-53.781,53.781h0A53.78,53.78,0,0,1,449.208,502.3h0A53.781,53.781,0,0,1,502.989,448.519Z" transform="translate(-5018.52 12623.199)" fill="#a75248"/><path d="M500.8,488.719l-2.071,2.071,7.839,7.841H489.408v2.953h17.157l-7.839,7.841L500.8,511.5l11.389-11.389Z" transform="translate(-5016.327 12625.392)" fill="#fff"/><path d="M437.63,513.4l.618,3.077-1.687.34-1.661-8.266,1.688-.339.616,3.066,7.049-1.416.426,2.122Z" transform="translate(-5019.299 12626.454)" fill="#fff"/><path d="M438.668,497.607a4.527,4.527,0,0,1,4.89,4.672,4.455,4.455,0,0,1-4.455,4.944,4.582,4.582,0,0,1-4.824-4.638A4.481,4.481,0,0,1,438.668,497.607Zm.309,7.342c1.681-.074,2.972-.978,2.895-2.722-.079-1.781-1.626-2.412-3.078-2.346-1.567.069-2.911.9-2.832,2.693C436.037,504.306,437.475,505.014,438.977,504.949Z" transform="translate(-5019.333 12625.875)" fill="#fff"/><path d="M434.693,493.349l5,.644c1.883.241,2.488-.69,2.627-1.768.15-1.156-.253-2-2.111-2.238l-5-.645.276-2.146,5.06.651c2.688.347,3.775,2.019,3.436,4.643-.327,2.549-1.7,4.019-4.453,3.664l-5.111-.659Z" transform="translate(-5019.326 12625.309)" fill="#fff"/><path d="M441.989,484.006l3.285.986-.615,2.048-8.533-2.56,1.392-4.641c.594-1.976,1.9-2.811,3.368-2.373a2.075,2.075,0,0,1,1.564,2.094,1.96,1.96,0,0,1,2.392-.656l.424.127a7.818,7.818,0,0,0,1.681.386l-.637,2.121a5.586,5.586,0,0,1-1.828-.377l-.291-.086c-.86-.259-1.307-.051-1.681,1.2Zm-1.564-.468.64-2.133c.3-1.007.069-1.551-.646-1.766-.678-.2-1.188.133-1.484,1.114l-.643,2.145Z" transform="translate(-5019.232 12624.771)" fill="#fff"/><path d="M443.405,470.241,441.915,473l-1.513-.815,4-7.413,1.513.818-1.483,2.748,6.32,3.411-1.026,1.9Z" transform="translate(-5019 12624.085)" fill="#fff"/><path d="M445.464,463.15l1.31-1.72,2.656,2.023,2.482-3.258-2.655-2.024,1.31-1.72,7.082,5.394-1.311,1.72-3.048-2.322-2.483,3.26,3.049,2.322-1.31,1.72Z" transform="translate(-5018.723 12623.632)" fill="#fff"/><path d="M461.231,453.14l-3.607,3.427,1.4,1.467,4.009-3.81,1.011,1.431-5.395,5.127-6.137-6.459,5.368-5.1,1.193,1.256-3.8,3.609,1.16,1.221,3.605-3.426Z" transform="translate(-5018.339 12623.237)" fill="#fff"/><path d="M473.253,446.131c.467,1.551.161,3.44-2.231,4.891a4.408,4.408,0,0,1-6.44-1.512,4.538,4.538,0,0,1,1.72-6.492c2.338-1.419,4.284-.823,5.28.307l-1.874,1.136a2.055,2.055,0,0,0-2.561,0c-1.43.866-1.5,2.405-.662,3.792.853,1.407,2.254,2.2,3.758,1.289a2.024,2.024,0,0,0,1.159-2.288Z" transform="translate(-5017.72 12622.854)" fill="#fff"/><path d="M476.321,445.672l.037,2.167-2.067.829.006-9.6,2.583-1.038,6.818,6.864-2.172.871-1.53-1.567Zm2.477-2.862c-1.534-1.581-2.3-2.4-2.75-2.945l-.012,0c.068.683.127,2.117.155,3.988Z" transform="translate(-5017.151 12622.627)" fill="#fff"/><path d="M492.15,439.748c-.29-1.5-.582-3.082-.719-4.061l-.013,0c-.123,1.7-.459,4.431-.87,7.847l-1.861.359c-1.34-2.665-2.835-5.4-3.613-6.968l-.013,0c.256.994.672,2.68.959,4.17l.616,3.192-1.913.368-1.686-8.743,3.068-.592c1.393,2.54,2.657,4.757,3.151,5.911l.011,0c.1-1.463.457-3.913.8-6.673l3.093-.6,1.686,8.744-2.05.394Z" transform="translate(-5016.674 12622.405)" fill="#fff"/><path d="M496.026,433.755l4.605-.051c2.073-.023,3.464,1,3.483,2.757.021,1.821-1.271,2.924-3.445,2.947l-2.4.027.037,3.2-2.177.022Zm2.221,4.011,2.226-.026c.923-.009,1.488-.332,1.478-1.217-.007-.721-.454-1.171-1.5-1.16l-2.228.025Z" transform="translate(-5015.966 12622.391)" fill="#fff"/><path d="M508.394,434.187l-.762,4.976c-.288,1.876.626,2.5,1.7,2.667,1.15.176,2-.2,2.286-2.055l.761-4.976,2.139.328-.773,5.039c-.408,2.675-2.1,3.721-4.718,3.321-2.539-.389-3.975-1.8-3.555-4.537l.779-5.09Z" transform="translate(-5015.455 12622.399)" fill="#fff"/><path d="M516.452,442.1c.006.812.43,1.479,1.839,1.93,1.327.424,1.83.135,2-.408.19-.59-.091-1.039-1.778-1.91-2.789-1.452-3.015-2.573-2.648-3.718.544-1.7,2.443-2.032,4.456-1.388,2.9.93,3.218,2.677,3,3.7l-2.06-.66c.015-.461-.093-1.12-1.49-1.567-.977-.313-1.569-.157-1.747.4-.155.483.114.848,1.616,1.632,3.031,1.609,3.226,2.746,2.831,3.976-.471,1.469-2.009,2.293-4.852,1.381-2.651-.848-3.465-2.412-3.24-4.025Z" transform="translate(-5014.967 12622.533)" fill="#fff"/><path d="M563.291,486.08,562.673,483l1.687-.34,1.661,8.266-1.688.339-.616-3.066-7.049,1.416-.427-2.122Z" transform="translate(-5012.683 12625.062)" fill="#fff"/><path d="M562.227,501.928a4.527,4.527,0,0,1-4.89-4.672,4.455,4.455,0,0,1,4.455-4.944,4.581,4.581,0,0,1,4.824,4.638A4.481,4.481,0,0,1,562.227,501.928Zm-.309-7.342c-1.681.074-2.972.978-2.894,2.722.077,1.781,1.624,2.411,3.077,2.347,1.567-.07,2.911-.9,2.833-2.694C564.858,495.23,563.42,494.52,561.918,494.587Z" transform="translate(-5012.624 12625.588)" fill="#fff"/><path d="M566.219,506.155l-5-.644c-1.883-.241-2.488.69-2.627,1.768-.15,1.156.252,2,2.111,2.238l5,.644-.276,2.147-5.061-.652c-2.687-.346-3.774-2.017-3.435-4.642.327-2.55,1.7-4.019,4.453-3.665l5.111.659Z" transform="translate(-5012.648 12626.187)" fill="#fff"/><path d="M558.985,515.534l-3.284-.986.614-2.048,8.533,2.56-1.393,4.641c-.593,1.976-1.9,2.812-3.367,2.373a2.076,2.076,0,0,1-1.564-2.094,1.96,1.96,0,0,1-2.391.657l-.425-.128a7.76,7.76,0,0,0-1.681-.386l.637-2.121a5.583,5.583,0,0,1,1.829.376l.291.086c.86.259,1.307.05,1.681-1.2Zm1.564.468-.64,2.133c-.3,1.006-.069,1.551.646,1.767.678.2,1.19-.132,1.484-1.115l.643-2.145Z" transform="translate(-5012.804 12626.688)" fill="#fff"/><path d="M557.545,529.257l1.49-2.759,1.514.816-4,7.411-1.513-.817,1.483-2.748-6.321-3.411,1.028-1.9Z" transform="translate(-5013.013 12627.416)" fill="#fff"/><path d="M555.581,536.514l-1.31,1.72-2.656-2.023-2.482,3.259,2.656,2.023-1.311,1.721-7.082-5.394,1.311-1.72,3.048,2.322,2.483-3.261-3.049-2.321,1.311-1.72Z" transform="translate(-5013.383 12627.704)" fill="#fff"/><path d="M539.78,546.5l3.606-3.427-1.4-1.468-4.009,3.81-1.011-1.431,5.395-5.127,6.139,6.459-5.369,5.1-1.194-1.256,3.8-3.609-1.16-1.221-3.606,3.426Z" transform="translate(-5013.734 12628.126)" fill="#fff"/><path d="M527.658,553.406c-.467-1.552-.161-3.44,2.231-4.891a4.409,4.409,0,0,1,6.44,1.512,4.538,4.538,0,0,1-1.72,6.492c-2.338,1.418-4.283.823-5.279-.308l1.873-1.135a2.055,2.055,0,0,0,2.561,0c1.43-.866,1.5-2.406.662-3.791-.853-1.408-2.254-2.2-3.757-1.29a2.023,2.023,0,0,0-1.16,2.287Z" transform="translate(-5014.252 12628.608)" fill="#fff"/><path d="M524.58,553.917l-.037-2.166,2.067-.83-.005,9.6-2.584,1.039L517.2,554.7l2.172-.872,1.53,1.568Zm-2.477,2.862c1.534,1.58,2.3,2.4,2.75,2.946l.012,0c-.069-.683-.127-2.117-.155-3.989Z" transform="translate(-5014.812 12628.784)" fill="#fff"/><path d="M508.875,559.843c.291,1.5.582,3.083.719,4.061l.013,0c.123-1.7.459-4.43.871-7.846l1.861-.36c1.34,2.667,2.835,5.406,3.613,6.969l.012,0c-.256-.994-.671-2.679-.958-4.17l-.617-3.193,1.913-.368,1.687,8.745-3.069.591c-1.392-2.54-2.657-4.758-3.15-5.911l-.012,0c-.1,1.462-.457,3.914-.8,6.673l-3.094.6-1.686-8.744,2.049-.394Z" transform="translate(-5015.413 12629.003)" fill="#fff"/><path d="M504.807,565.746l-4.6.052c-2.073.022-3.465-1-3.483-2.758-.021-1.821,1.27-2.923,3.445-2.946l2.4-.027-.036-3.2,2.175-.023Zm-2.221-4.01-2.225.026c-.924.009-1.489.332-1.478,1.217.006.721.454,1.17,1.5,1.16l2.227-.024Z" transform="translate(-5015.929 12629.106)" fill="#fff"/><path d="M492.494,565.354l.762-4.977c.288-1.875-.627-2.5-1.7-2.666-1.151-.176-2,.2-2.286,2.055l-.761,4.977-2.139-.328.772-5.04c.409-2.675,2.106-3.721,4.719-3.322,2.538.389,3.974,1.8,3.554,4.538l-.779,5.09Z" transform="translate(-5016.493 12629.06)" fill="#fff"/><path d="M484.43,557.43c-.007-.811-.43-1.478-1.84-1.93-1.326-.424-1.83-.134-2,.408-.189.591.092,1.039,1.778,1.91,2.79,1.451,3.016,2.573,2.649,3.718-.545,1.7-2.444,2.032-4.456,1.388-2.9-.929-3.219-2.677-3-3.7l2.061.659c-.015.461.094,1.121,1.49,1.567.976.312,1.57.157,1.748-.4.154-.482-.114-.848-1.616-1.632-3.032-1.608-3.226-2.747-2.831-3.975.47-1.47,2.009-2.293,4.851-1.381,2.651.848,3.465,2.41,3.239,4.024Z" transform="translate(-5016.977 12628.935)" fill="#fff"/></g></svg>
