<svg xmlns="http://www.w3.org/2000/svg" width="79.001" height="25.308" viewBox="0 0 79.001 25.308"><g transform="translate(1.5 1.5)"><path d="M.5,12.217V5.836A5.336,5.336,0,0,1,5.836.5h.37a5.336,5.336,0,0,1,5.336,5.336V17.472a5.336,5.336,0,0,0,5.336,5.336h.234a5.336,5.336,0,0,0,5.336-5.336V5.836A5.336,5.336,0,0,1,27.783.5h.347a5.336,5.336,0,0,1,5.336,5.336V17.472A5.336,5.336,0,0,0,38.8,22.808h.009a5.336,5.336,0,0,0,5.336-5.336V5.836A5.336,5.336,0,0,1,49.482.5h.234a5.336,5.336,0,0,1,5.336,5.336V17.472a5.336,5.336,0,0,0,5.336,5.336h.106a5.336,5.336,0,0,0,5.336-5.336V5.836a5.336,5.336,0,0,1,10.671,0V14.47" transform="translate(-0.5 -0.5)" fill="none" stroke="#b6ccc2" stroke-miterlimit="10" stroke-width="3"/></g></svg>