<svg xmlns="http://www.w3.org/2000/svg" width="160" height="160" viewBox="0 0 160 160"><g transform="translate(-8306 -12804)"><g transform="translate(7380.026 13273.728)"><g transform="translate(959.974 -407.728)"><g transform="translate(0 0)"><g transform="translate(0.056 2.728)"><path d="M114.3,98.6h4.806v17.46H130v4.36H114.3Z" transform="translate(-114.3 -98.303)" fill="#fff"/><path d="M319.2,98.6h10.131a7.957,7.957,0,0,1,5.715,1.93,5.032,5.032,0,0,1,1.5,3.767,5.084,5.084,0,0,1-2.876,4.713c2.523.965,4.082,2.431,4.082,5.418,0,3.989-3.247,5.993-8.164,5.993H319.2Zm9.092,8.832c2.115,0,3.47-.687,3.47-2.375,0-1.429-1.132-2.245-3.154-2.245h-4.75v4.62Zm1.28,8.795c2.115,0,3.4-.742,3.4-2.431,0-1.466-1.095-2.375-3.562-2.375h-5.548v4.806Z" transform="translate(-281.181 -98.303)" fill="#fff"/><path d="M518.7,115.332l7.274-5.956c2.709-2.245,3.767-3.433,3.767-5.232a2.684,2.684,0,0,0-2.932-2.839c-1.689,0-2.839.928-4.453,2.932l-3.377-2.709c2.152-2.95,4.23-4.527,8.127-4.527,4.527,0,7.515,2.653,7.515,6.791,0,3.655-1.874,5.455-5.733,8.461L525.343,115h9.519v4.156H518.7Z" transform="translate(-443.664 -97)" fill="#fff"/></g><g transform="translate(25.773)"><rect width="1.521" height="28.278" fill="#fff"/><rect width="1.521" height="28.278" transform="translate(38.223)" fill="#fff"/></g><g transform="translate(0 30.133)"><path d="M114,245.3h2.431a2.047,2.047,0,0,1,2.282,2.078,2.131,2.131,0,0,1-2.394,2.1h-1v1.781h-1.3V245.3Zm2.356,2.987a.926.926,0,0,0,1.039-.909c0-.594-.408-.909-1.058-.909h-1v1.818Z" transform="translate(-114 -245.189)" fill="#fff"/><path d="M175.842,245h1.206l2.542,5.993h-1.373l-.538-1.336h-2.5l-.538,1.336H173.3Zm1.373,3.507-.8-1.93-.8,1.93Z" transform="translate(-162.297 -244.944)" fill="#fff"/><path d="M246.819,245.3h2.709a2.343,2.343,0,0,1,1.726.594,1.865,1.865,0,0,1,.5,1.373,1.832,1.832,0,0,1-1.28,1.837l1.447,2.115H250.4l-1.3-1.893h-1v1.893h-1.3V245.3Zm2.635,2.876c.631,0,1-.334,1-.854,0-.557-.39-.853-1.021-.853h-1.3v1.707Z" transform="translate(-222.159 -245.189)" fill="#fff"/><path d="M314.2,246.406h-1.8V245.2h4.917v1.206h-1.8v4.731h-1.3v-4.731Z" transform="translate(-275.587 -245.107)" fill="#fff"/><path d="M378.9,245.3h1.206l2.783,3.655V245.3h1.3v5.938h-1.113l-2.876-3.785v3.785h-1.3Z" transform="translate(-329.748 -245.189)" fill="#fff"/><path d="M449.8,245.3h4.49v1.169H451.1v1.206h2.8v1.169h-2.8v1.243h3.229v1.169H449.8Z" transform="translate(-387.493 -245.189)" fill="#fff"/><path d="M515.018,245.3h2.709a2.343,2.343,0,0,1,1.726.594,1.865,1.865,0,0,1,.5,1.373,1.832,1.832,0,0,1-1.28,1.837l1.447,2.115H518.6l-1.3-1.893h-1v1.893H515V245.3Zm2.635,2.876c.631,0,1-.334,1-.854,0-.557-.39-.853-1.02-.853h-1.3v1.707Z" transform="translate(-440.595 -245.189)" fill="#fff"/><path d="M580.6,249.877l.779-.928a2.718,2.718,0,0,0,1.781.724c.538,0,.854-.2.854-.575,0-.334-.2-.5-1.187-.761-1.206-.3-1.967-.631-1.967-1.837a1.869,1.869,0,0,1,2.078-1.8,3.424,3.424,0,0,1,2.208.761l-.687.983a2.726,2.726,0,0,0-1.54-.594c-.5,0-.761.223-.761.538,0,.39.26.52,1.28.779,1.206.315,1.893.742,1.893,1.8,0,1.187-.891,1.837-2.19,1.837A3.749,3.749,0,0,1,580.6,249.877Z" transform="translate(-494.023 -244.7)" fill="#fff"/></g></g></g></g><rect width="160" height="160" transform="translate(8306 12804)" fill="none" opacity="0"/></g></svg>