<svg xmlns="http://www.w3.org/2000/svg" width="160" height="160" viewBox="0 0 160 160"><g transform="translate(-8146 -12804)"><g transform="translate(8007 11938.309)"><rect width="157.16" height="24.424" transform="translate(140.062 933.019)" fill="#fff"/><g transform="translate(139 932.692)"><g transform="translate(0 0)"><path d="M44.056,19.958,41.923,25.13h4.266l-2.1-5.173Z" transform="translate(-23.204 -11.047)" fill="#102f43"/><path d="M0,0V25.258H58.251V0ZM13.561,18.206h-6.7V6.937H8.388v9.836h5.173Zm11.11,0-1.13-2.785H18.177l-1.114,2.785H15.28L20.246,6.937h1.385l4.823,11.269Zm14.611,0H37.34L31.069,8.943h-.032v9.263H29.51V6.937h2.005L37.723,16.2h.032V6.937h1.528Zm12.048,0H43.77V6.937h7.274V8.37H45.3v3.359h5.348V13.16H45.3v3.613H51.33Z" fill="#102f43"/><path d="M174.81,19.958l-2.133,5.173h4.266l-2.1-5.173Z" transform="translate(-95.577 -11.047)" fill="#66b34b"/><path d="M130.462,0V25.258H232.211V0ZM144.87,11.179a2.539,2.539,0,0,1-.565,1.018,3.025,3.025,0,0,1-1.106.748,4.631,4.631,0,0,1-1.782.294h-2.435v4.966h-1.528V6.937h3.963a4.63,4.63,0,0,1,1.782.295,3.024,3.024,0,0,1,1.106.748A2.548,2.548,0,0,1,144.87,9a3.809,3.809,0,0,1,0,2.181Zm10.394,7.027-1.13-2.785H148.77l-1.114,2.785h-1.783l4.966-11.269h1.385l4.823,11.269Zm10.935,0-2.865-4.966h-1.7v4.966H160.1V6.937h3.963a4.632,4.632,0,0,1,1.783.295,3.03,3.03,0,0,1,1.106.748A2.546,2.546,0,0,1,167.519,9a4,4,0,0,1,.159,1.091,2.91,2.91,0,0,1-.191,1.043,2.952,2.952,0,0,1-.549.907,3.127,3.127,0,0,1-.876.684,3.046,3.046,0,0,1-1.154.342l3.2,5.141ZM178.645,8.37h-3.629v9.837h-1.528V8.37h-3.629V6.937h8.786Zm12.988,9.837h-1.942l-6.271-9.263h-.032v9.263H181.86V6.937h2.005l6.207,9.263h.032V6.937h1.528Zm12.049,0h-7.56V6.937h7.274V8.37h-5.746v3.359H203V13.16h-5.348v3.613h6.032Zm9.852,0-2.865-4.966h-1.7v4.966h-1.528V6.937H211.4a4.628,4.628,0,0,1,1.782.295,3.023,3.023,0,0,1,1.106.748A2.547,2.547,0,0,1,214.854,9a4.014,4.014,0,0,1,.159,1.091,2.91,2.91,0,0,1-.191,1.043,2.953,2.953,0,0,1-.55.907,3.117,3.117,0,0,1-.875.684,3.051,3.051,0,0,1-1.154.342l3.2,5.141Zm11.5-1.735a3.249,3.249,0,0,1-.835,1.1,3.716,3.716,0,0,1-1.242.684,4.8,4.8,0,0,1-1.528.238,5.557,5.557,0,0,1-2.053-.382,3.373,3.373,0,0,1-1.544-1.178l1.257-1.082a2.506,2.506,0,0,0,1.059.915,3.158,3.158,0,0,0,1.329.295,2.708,2.708,0,0,0,.78-.119,2.387,2.387,0,0,0,.724-.358,1.947,1.947,0,0,0,.533-.589,1.563,1.563,0,0,0,.207-.812,1.216,1.216,0,0,0-.413-.994,3.573,3.573,0,0,0-1.026-.573q-.613-.23-1.337-.446a5.438,5.438,0,0,1-1.337-.6,3.276,3.276,0,0,1-1.027-1.027,3.2,3.2,0,0,1-.414-1.743,3.006,3.006,0,0,1,.892-2.069,3.73,3.73,0,0,1,1.185-.772,4.418,4.418,0,0,1,1.743-.311,6.086,6.086,0,0,1,1.767.255,3.037,3.037,0,0,1,1.48,1.035L223.99,9.07a2.059,2.059,0,0,0-.811-.716,2.571,2.571,0,0,0-1.194-.271,2.9,2.9,0,0,0-1.058.167,1.9,1.9,0,0,0-.677.43,1.52,1.52,0,0,0-.358.565,1.727,1.727,0,0,0-.1.557,1.419,1.419,0,0,0,.414,1.1,3.2,3.2,0,0,0,1.026.621,12.4,12.4,0,0,0,1.337.43,5.741,5.741,0,0,1,1.337.533,3.12,3.12,0,0,1,1.026.923,2.718,2.718,0,0,1,.414,1.6A3.362,3.362,0,0,1,225.032,16.471Z" transform="translate(-72.211)" fill="#66b34b"/><path d="M153.211,18.866a2.382,2.382,0,0,0-.78-.263,5.465,5.465,0,0,0-.884-.071h-2.005v3.629h2.005a5.415,5.415,0,0,0,.884-.072,2.372,2.372,0,0,0,.78-.263,1.436,1.436,0,0,0,.549-.549,2.2,2.2,0,0,0,0-1.862A1.437,1.437,0,0,0,153.211,18.866Z" transform="translate(-82.772 -10.258)" fill="#66b34b"/><path d="M310.5,21.278a2.2,2.2,0,0,0,0-1.862,1.437,1.437,0,0,0-.549-.549,2.382,2.382,0,0,0-.78-.263,5.465,5.465,0,0,0-.884-.071h-2.005v3.629h2.005a5.415,5.415,0,0,0,.884-.072,2.372,2.372,0,0,0,.78-.263A1.436,1.436,0,0,0,310.5,21.278Z" transform="translate(-169.529 -10.258)" fill="#66b34b"/><path d="M204.486,21.278a2.2,2.2,0,0,0,0-1.862,1.436,1.436,0,0,0-.549-.549,2.38,2.38,0,0,0-.78-.263,5.467,5.467,0,0,0-.884-.071h-2.005v3.629h2.005a5.417,5.417,0,0,0,.884-.072,2.369,2.369,0,0,0,.78-.263A1.435,1.435,0,0,0,204.486,21.278Z" transform="translate(-110.849 -10.258)" fill="#66b34b"/></g></g></g><rect width="160" height="160" transform="translate(8146 12804)" fill="none" opacity="0"/></g></svg>